<svg width="36" height="36" viewBox="0 0 36 36" fill="none" xmlns="http://www.w3.org/2000/svg">
<rect width="36" height="36" rx="18" fill="#F8F8F8"/>
<path d="M18.2848 26.673H11.4958C10.6173 26.673 9.89844 25.9542 9.89844 25.0756V16.2899C9.89844 15.8107 10.2179 15.4912 10.6971 15.4912H25.8725C26.3517 15.4912 26.6712 15.8107 26.6712 16.2899V21.8808C26.6712 22.36 26.3517 22.6795 25.8725 22.6795C25.3932 22.6795 25.2993 22.36 25.2993 21.8808V16.8631H11.2703V25.3011H18.2848C18.764 25.3011 19.0835 25.3951 19.0835 25.8743C19.0835 26.3535 18.764 26.673 18.2848 26.673Z" fill="#0850AC"/>
<path d="M25.8725 16.8629H10.6971C10.2179 16.8629 9.89844 16.7689 9.89844 16.2897V12.6955C9.89844 11.817 10.6173 11.0981 11.4958 11.0981H25.0738C25.9523 11.0981 26.6712 11.817 26.6712 12.6955V16.2897C26.6712 16.7689 26.3517 16.8629 25.8725 16.8629ZM11.2703 15.491H25.2993V12.47H11.2703V15.491Z" fill="#0850AC"/>
<path d="M15.0917 14.6924C14.6124 14.6924 14.293 14.3729 14.293 13.8937V10.6988C14.293 10.2196 14.6124 9.90015 15.0917 9.90015C15.5709 9.90015 15.8904 10.2196 15.8904 10.6988V13.8937C15.8904 14.3729 15.5709 14.6924 15.0917 14.6924Z" fill="#0850AC"/>
<path d="M21.4803 14.6924C21.0011 14.6924 20.6816 14.3729 20.6816 13.8937V10.6988C20.6816 10.2196 21.0011 9.90015 21.4803 9.90015C21.9596 9.90015 22.279 10.2196 22.279 10.6988V13.8937C22.279 14.3729 21.9596 14.6924 21.4803 14.6924Z" fill="#0850AC"/>
<path d="M20.682 25.0758C18.6853 25.0758 17.0879 23.4784 17.0879 21.4816C17.0879 19.4849 18.6853 17.8875 20.682 17.8875C22.6788 17.8875 24.2762 19.4849 24.2762 21.4816C24.2762 23.4784 22.6788 25.0758 20.682 25.0758ZM20.682 19.4849C19.5639 19.4849 18.6853 20.3634 18.6853 21.4816C18.6853 22.5998 19.5639 23.4784 20.682 23.4784C21.8002 23.4784 22.6788 22.5998 22.6788 21.4816C22.6788 20.3634 21.8002 19.4849 20.682 19.4849Z" fill="#0850AC"/>
<path d="M25.475 26.2737C25.3152 26.2737 25.0756 26.1939 24.9958 26.114L22.5997 24.1173C22.2802 23.7978 22.2003 23.3186 22.5198 22.9991C22.8393 22.6796 23.3185 22.5997 23.638 22.9192L26.0341 24.916C26.3536 25.2354 26.4334 25.7147 26.1139 26.0341C25.9542 26.1939 25.7146 26.2737 25.475 26.2737Z" fill="#0850AC"/>
</svg>
