<svg width="36" height="36" viewBox="0 0 36 36" fill="none" xmlns="http://www.w3.org/2000/svg">
<rect width="36" height="36" rx="18" fill="#F8F8F8"/>
<path d="M17.9998 9.89993C14.6505 9.89993 11.9248 12.6507 11.9248 16.0327C11.9248 20.8381 17.4288 25.7998 17.663 26.0082C17.7595 26.0941 17.8797 26.1367 17.9998 26.1367C18.12 26.1367 18.2401 26.0941 18.3366 26.0089C18.5709 25.7998 24.0748 20.8381 24.0748 16.0327C24.0748 12.6507 21.3492 9.89993 17.9998 9.89993ZM17.9998 19.3714C16.1388 19.3714 14.6248 17.8539 14.6248 15.9887C14.6248 14.1235 16.1388 12.6061 17.9998 12.6061C19.8608 12.6061 21.3748 14.1235 21.3748 15.9887C21.3748 17.8539 19.8608 19.3714 17.9998 19.3714Z" fill="#0850AC"/>
</svg>
