<svg width="40" height="40" viewBox="0 0 40 40" fill="none" xmlns="http://www.w3.org/2000/svg">
<rect width="40" height="40" rx="20" fill="#F8F8F8"/>
<g clip-path="url(#clip0_170_2084)">
<path d="M18.4621 24.7194L16.3411 26.8404C15.4617 27.7197 14.0377 27.7197 13.1591 26.8406C12.2803 25.9618 12.2803 24.5376 13.1589 23.6591L17.4017 19.4163C18.2803 18.5376 19.7045 18.5376 20.5831 19.4163C20.876 19.7092 21.3509 19.7092 21.6437 19.4163C21.9366 19.1234 21.9366 18.6485 21.6437 18.3556C20.1793 16.8912 17.8055 16.8912 16.3411 18.3556L12.0983 22.5983C10.6339 24.0628 10.6339 26.4366 12.0983 27.901C13.5625 29.3662 15.9366 29.3662 17.4018 27.901L19.5228 25.78C19.8157 25.4871 19.8157 25.0122 19.5228 24.7193C19.2299 24.4265 18.755 24.4265 18.4621 24.7194Z" fill="#0850AC"/>
<path d="M27.9008 12.0983C26.4364 10.6339 24.0617 10.6339 22.5973 12.0983L20.0526 14.643C19.7597 14.9359 19.7597 15.4108 20.0526 15.7037C20.3455 15.9966 20.8204 15.9966 21.1132 15.7037L23.658 13.1589C24.5366 12.2803 25.9615 12.2803 26.8401 13.1589C27.7187 14.0375 27.7187 15.4617 26.8401 16.3403L22.1736 21.0068C21.295 21.8855 19.8708 21.8855 18.9923 21.0068C18.6994 20.714 18.2245 20.714 17.9316 21.0068C17.6387 21.2997 17.6387 21.7746 17.9316 22.0675C19.396 23.5319 21.7699 23.5319 23.2343 22.0675L27.9008 17.401C29.3652 15.9366 29.3652 13.5627 27.9008 12.0983Z" fill="#0850AC"/>
</g>
<defs>
<clipPath id="clip0_170_2084">
<rect width="18" height="18" fill="white" transform="translate(11 11)"/>
</clipPath>
</defs>
</svg>
