<svg width="40" height="40" viewBox="0 0 40 40" fill="none" xmlns="http://www.w3.org/2000/svg">
<rect width="40" height="40" rx="20" fill="#F8F8F8"/>
<path d="M25.0586 21.3868C24.9463 21.3235 24.8191 21.2519 24.6657 21.1595C24.5802 21.1078 24.4726 21.0371 24.3586 20.9622C23.7734 20.5779 23.33 20.3058 22.9526 20.3058C22.8642 20.3058 22.7805 20.3208 22.7043 20.3502C22.3736 20.4776 22.1021 20.8181 21.8395 21.1473C21.7433 21.2679 21.6055 21.4406 21.5219 21.5178C21.1904 21.4575 20.4911 21.0239 19.7364 20.2687C18.9809 19.5126 18.5476 18.8119 18.4882 18.4809C18.5652 18.3969 18.7391 18.2581 18.8603 18.1611C19.188 17.8993 19.5269 17.6286 19.6549 17.2986C19.8183 16.8748 19.5189 16.3678 19.0435 15.6429C18.9687 15.5288 18.898 15.4211 18.8467 15.3361C18.7541 15.1821 18.6825 15.0546 18.6193 14.9423C18.3601 14.4812 18.1888 14.1765 17.5452 14.1765C17.1275 14.1765 16.537 14.5715 16.1369 14.9633C15.5556 15.5327 15.2354 16.1902 15.2354 16.8158C15.2365 18.5149 16.184 20.4624 17.8351 22.1608C17.8379 22.1636 17.8408 22.1644 17.8437 22.1672C19.5407 23.8197 21.4877 24.7647 23.1855 24.7647H23.1862C23.8105 24.7647 24.4676 24.4479 25.0366 23.8664C25.4283 23.4661 25.8236 22.8794 25.8236 22.4616C25.8236 21.8176 25.5193 21.6462 25.0586 21.3868ZM23.1857 23.8868C21.7395 23.8858 19.9754 23.0087 18.4658 21.5405C16.9986 20.0295 16.1221 18.2638 16.1212 16.8166C16.1212 15.9413 17.2563 15.109 17.5531 15.0633C17.6138 15.0636 17.6456 15.0672 17.6607 15.0698C17.7 15.115 17.778 15.2537 17.8474 15.3773C17.9102 15.4891 17.9885 15.6282 18.0882 15.794C18.1484 15.8938 18.2235 16.0083 18.303 16.1295C18.4535 16.3589 18.7559 16.8201 18.8069 17.017C18.7217 17.1377 18.4571 17.3491 18.3078 17.4684C17.9255 17.7739 17.5953 18.0376 17.5953 18.4103C17.5963 19.3107 18.755 20.5403 19.1102 20.8957C19.4653 21.2511 20.6939 22.4108 21.5955 22.4116C21.9655 22.4105 22.2279 22.0814 22.5319 21.7004C22.6517 21.5502 22.8642 21.2839 22.9853 21.199C23.1818 21.2497 23.6432 21.5527 23.8726 21.7035C23.9937 21.783 24.1081 21.8581 24.2085 21.9188C24.3735 22.0182 24.5125 22.0965 24.6243 22.1594C24.7477 22.2289 24.8864 22.307 24.9315 22.3463C24.9341 22.3614 24.9376 22.3932 24.9379 22.4538C24.892 22.7507 24.0601 23.8858 23.1857 23.8868Z" fill="#0850AC"/>
<path d="M28.9992 19.9714C28.9681 17.6051 28.0066 15.3691 26.2919 13.6752C24.5455 11.9501 22.2404 11 19.8009 11C17.4461 11 15.2432 11.8951 13.5979 13.5203C12.1379 14.9626 11.2422 16.8861 11.0756 18.9367C10.9175 20.8823 11.4189 22.8511 12.4895 24.5065L11.0275 28.4102C10.9662 28.574 11.0093 28.7583 11.1373 28.8789C11.2213 28.9582 11.3315 29 11.4434 29C11.5017 29 11.5606 28.9833 11.6164 28.9599L15.4239 27.3593C16.8775 28.253 18.5395 28.7136 20.2461 28.7136C22.6006 28.7136 24.8036 27.8292 26.4487 26.2041C28.1245 24.5486 29.0304 22.3419 28.9992 19.9714ZM25.8217 25.5955C24.344 27.0553 22.3639 27.8592 20.2461 27.8591C18.6338 27.8591 17.0652 27.3929 15.7098 26.511C15.6363 26.4632 15.5514 26.4388 15.466 26.4388C15.4073 26.4388 15.3485 26.4503 15.2929 26.4736L12.2151 27.7631L13.3986 24.603C13.4481 24.4707 13.4301 24.3229 13.3503 24.2061C11.175 21.0226 11.5427 16.789 14.2248 14.1396C15.7026 12.6798 17.6829 11.8757 19.8009 11.8757C22.0035 11.8757 24.0861 12.7347 25.665 14.2944C27.2154 15.8259 28.0846 17.8461 28.1127 19.9828C28.1408 22.1151 27.3272 24.1084 25.8217 25.5955Z" fill="#0850AC"/>
</svg>
