<svg width="40" height="40" viewBox="0 0 40 40" fill="none" xmlns="http://www.w3.org/2000/svg">
<rect width="40" height="40" rx="20" fill="#F8F8F8"/>
<path d="M10.394 26.3292C12.2457 27.5042 14.4007 28.125 16.6257 28.125C19.884 28.125 22.8699 26.8733 25.034 24.6008C27.1049 22.4258 28.244 19.5033 28.1873 16.5375C28.9723 15.8658 29.8957 14.5833 29.8957 13.3333C29.8957 12.8542 29.3757 12.55 28.954 12.7942C28.2165 13.2275 27.544 13.3408 26.8523 13.1467C25.4398 11.77 23.3373 11.48 21.5657 12.435C20.0174 13.2683 19.1565 14.7933 19.234 16.46C16.6182 16.1408 14.2015 14.8292 12.5165 12.7908C12.2399 12.4583 11.7149 12.4975 11.4949 12.8742C10.6832 14.2642 10.6915 15.875 11.3974 17.1758C11.0615 17.235 10.854 17.5175 10.854 17.8233C10.854 19.1308 11.4424 20.3325 12.3899 21.1525C12.2132 21.3225 12.1549 21.575 12.2299 21.8C12.6465 23.0517 13.5899 24.03 14.769 24.52C13.4865 25.1325 12.0682 25.3367 10.8057 25.1817C10.1524 25.0933 9.82985 25.9717 10.394 26.3292ZM16.7965 24.7342C17.264 24.375 17.0157 23.6267 16.429 23.6142C15.3957 23.5925 14.4549 23.0833 13.869 22.2825C14.1515 22.2642 14.444 22.2208 14.7224 22.1458C15.3565 21.9742 15.3265 21.0592 14.6824 20.93C13.5132 20.695 12.5957 19.8433 12.2515 18.7467C12.5657 18.8242 12.8857 18.8675 13.2049 18.8733C13.8374 18.8767 14.0765 18.0658 13.5607 17.7267C12.3982 16.9608 11.9024 15.6083 12.2307 14.3367C14.2607 16.3933 17.0149 17.6325 19.9282 17.7725C20.3457 17.7983 20.659 17.4058 20.5674 17.0083C20.1715 15.2925 21.1298 14.09 22.159 13.5358C23.1774 12.9858 24.8123 12.8142 26.0657 14.1292C26.4382 14.5217 27.6948 14.5367 28.334 14.3875C28.0473 14.9275 27.6065 15.44 27.194 15.7283C27.0182 15.8517 26.9173 16.0567 26.9282 16.2708C27.0623 19.0083 26.0423 21.73 24.1298 23.7375C22.2032 25.76 19.539 26.8742 16.6265 26.8742C15.4682 26.8742 14.3324 26.6858 13.259 26.3225C14.5424 26.0742 15.7615 25.5308 16.7965 24.7342Z" fill="#0850AC"/>
</svg>
