<svg width="40" height="40" viewBox="0 0 40 40" fill="none" xmlns="http://www.w3.org/2000/svg">
<rect width="40" height="40" rx="20" fill="#F8F8F8"/>
<g clip-path="url(#clip0_170_2120)">
<path d="M21.3506 29.9609H18.1415C17.6055 29.9609 17.1695 29.5258 17.1695 28.9908V21.7667H15.2972C14.7612 21.7667 14.3252 21.3313 14.3252 20.7965V17.701C14.3252 17.166 14.7612 16.7308 15.2972 16.7308H17.1695V15.1807C17.1695 13.6436 17.6531 12.336 18.5678 11.3992C19.4866 10.4582 20.7707 9.96094 22.2813 9.96094L24.7287 9.9649C25.2638 9.96582 25.699 10.401 25.699 10.9351V13.8092C25.699 14.3442 25.2632 14.7794 24.7273 14.7794L23.0795 14.78C22.5769 14.78 22.449 14.8805 22.4216 14.9113C22.3765 14.9625 22.3228 15.107 22.3228 15.506V16.7307H24.6034C24.7751 16.7307 24.9415 16.7729 25.0844 16.8526C25.3928 17.0245 25.5845 17.3497 25.5845 17.7011L25.5833 20.7967C25.5833 21.3313 25.1473 21.7665 24.6112 21.7665H22.3228V28.9908C22.3228 29.5258 21.8867 29.9609 21.3506 29.9609ZM18.3443 28.7885H21.1479V21.2418C21.1479 20.8846 21.4392 20.594 21.7969 20.594H24.4085L24.4096 17.9033H21.7968C21.439 17.9033 21.1479 17.6128 21.1479 17.2556V15.506C21.1479 15.0479 21.1945 14.527 21.541 14.1354C21.9596 13.6621 22.6193 13.6075 23.0792 13.6075L24.5243 13.6069V11.1371L22.2803 11.1334C19.8528 11.1334 18.3443 12.6843 18.3443 15.1807V17.2556C18.3443 17.6126 18.0532 17.9033 17.6954 17.9033H15.5V20.594H17.6954C18.0532 20.594 18.3443 20.8846 18.3443 21.2418V28.7885Z" fill="#0850AC"/>
</g>
<defs>
<clipPath id="clip0_170_2120">
<rect width="20" height="20" fill="white" transform="translate(10 10)"/>
</clipPath>
</defs>
</svg>
