<svg width="40" height="40" viewBox="0 0 40 40" fill="none" xmlns="http://www.w3.org/2000/svg">
<rect width="40" height="40" rx="20" fill="#F8F8F8"/>
<g clip-path="url(#clip0_170_2125)">
<path d="M15.6957 28.8165H11V16.6862H15.6957V28.8165ZM11.7826 28.034H14.9131V17.4687H11.7826V28.034Z" fill="#0850AC"/>
<path d="M28.9999 28.8165H24.3042V22.1644C24.3042 21.5161 23.7786 20.9905 23.1303 20.9905C22.4819 20.9905 21.9564 21.5161 21.9564 22.1644V28.8165H17.2607V16.6862H21.9564V17.4736C22.6652 16.9612 23.5176 16.6856 24.3922 16.6862C26.9308 16.6862 28.9999 18.7454 28.9999 21.2791V28.8165ZM25.0868 28.034H28.2172V21.2791C28.2119 19.1712 26.5001 17.466 24.3922 17.4687C23.4287 17.4687 22.5237 17.8747 21.8488 18.6084L21.1737 19.347V17.4687H18.0433V28.034H21.1737V22.1644C21.1737 21.0838 22.0497 20.2079 23.1303 20.2079C24.2108 20.2079 25.0868 21.0838 25.0868 22.1644V28.034Z" fill="#0850AC"/>
<path d="M13.3478 15.9035C12.0511 15.9035 11 14.8524 11 13.5557C11 12.2591 12.0511 11.2078 13.3478 11.2078C14.6445 11.2078 15.6957 12.2591 15.6957 13.5557C15.6929 14.8512 14.6434 15.9009 13.3478 15.9035ZM13.3478 11.9905C12.4834 11.9905 11.7826 12.6913 11.7826 13.5557C11.7826 14.4202 12.4834 15.1209 13.3478 15.1209C14.2122 15.1209 14.9131 14.4202 14.9131 13.5557C14.9131 12.6913 14.2122 11.9905 13.3478 11.9905Z" fill="#0850AC"/>
</g>
<defs>
<clipPath id="clip0_170_2125">
<rect width="18" height="18" fill="white" transform="translate(11 11)"/>
</clipPath>
</defs>
</svg>
