<svg width="31" height="31" viewBox="0 0 31 31" fill="none" xmlns="http://www.w3.org/2000/svg">
<path fill-rule="evenodd" clip-rule="evenodd" d="M14.9743 0.361817H16.0259C18.7711 0.361801 20.9354 0.361788 22.6552 0.548117C24.4147 0.738748 25.8594 1.13659 27.0977 2.03621C27.842 2.57697 28.4965 3.23151 29.0373 3.9758C29.9369 5.21403 30.3347 6.65873 30.5254 8.41824C30.7117 10.138 30.7117 12.3023 30.7117 15.0475V16.0992C30.7117 18.8444 30.7117 21.0087 30.5254 22.7285C30.3347 24.488 29.9369 25.9327 29.0373 27.1709C28.4965 27.9152 27.842 28.5697 27.0977 29.1105C25.8594 30.0101 24.4147 30.408 22.6552 30.5986C20.9354 30.7849 18.7712 30.7849 16.0259 30.7849H14.9743C12.2291 30.7849 10.0648 30.7849 8.345 30.5986C6.58549 30.408 5.14078 30.0101 3.90256 29.1105C3.15827 28.5697 2.50373 27.9152 1.96297 27.1709C1.06335 25.9327 0.665506 24.488 0.474874 22.7285C0.288546 21.0087 0.288559 18.8444 0.288575 16.0991V15.0476C0.288559 12.3023 0.288546 10.138 0.474874 8.41824C0.665506 6.65873 1.06335 5.21403 1.96297 3.9758C2.50373 3.23151 3.15827 2.57697 3.90256 2.03621C5.14078 1.13659 6.58549 0.738748 8.345 0.548117C10.0648 0.361788 12.2291 0.361801 14.9743 0.361817ZM8.61943 3.08104C7.07669 3.24818 6.13162 3.5659 5.40009 4.09738C4.87209 4.481 4.40775 4.94533 4.02414 5.47333C3.49265 6.20486 3.17494 7.14993 3.0078 8.69267C2.83807 10.2592 2.83632 12.2856 2.83632 15.1238V16.023C2.83632 18.8611 2.83807 20.8875 3.0078 22.454C3.17494 23.9968 3.49265 24.9419 4.02414 25.6734C4.40775 26.2014 4.87209 26.6657 5.40009 27.0493C6.13162 27.5808 7.07669 27.8985 8.61943 28.0657C10.186 28.2354 12.2123 28.2371 15.0505 28.2371H15.9497C18.7879 28.2371 20.8142 28.2354 22.3808 28.0657C23.9235 27.8985 24.8686 27.5808 25.6001 27.0493C26.1281 26.6657 26.5925 26.2014 26.9761 25.6734C27.5076 24.9419 27.8253 23.9968 27.9924 22.454C28.1622 20.8875 28.1639 18.8611 28.1639 16.023V15.1238C28.1639 12.2856 28.1622 10.2592 27.9924 8.69267C27.8253 7.14993 27.5076 6.20486 26.9761 5.47333C26.5925 4.94533 26.1281 4.481 25.6001 4.09738C24.8686 3.5659 23.9235 3.24818 22.3808 3.08104C20.8142 2.91131 18.7879 2.90956 15.9497 2.90956H15.0505C12.2123 2.90956 10.186 2.91131 8.61943 3.08104Z" fill="#0850AC"/>
<path fill-rule="evenodd" clip-rule="evenodd" d="M15.5001 10.4029C12.6446 10.4029 10.3297 12.7178 10.3297 15.5734C10.3297 18.4289 12.6446 20.7438 15.5001 20.7438C18.3557 20.7438 20.6705 18.4289 20.6705 15.5734C20.6705 12.7178 18.3557 10.4029 15.5001 10.4029ZM7.78194 15.5734C7.78194 11.3107 11.2375 7.85519 15.5001 7.85519C19.7627 7.85519 23.2183 11.3107 23.2183 15.5734C23.2183 19.836 19.7627 23.2915 15.5001 23.2915C11.2375 23.2915 7.78194 19.836 7.78194 15.5734Z" fill="#0850AC"/>
<path d="M21.9444 7.42432C21.9444 6.46212 22.7244 5.68211 23.6866 5.68211C24.6488 5.68211 25.4288 6.46212 25.4288 7.42432C25.4288 8.38651 24.6488 9.16652 23.6866 9.16652C22.7244 9.16652 21.9444 8.38651 21.9444 7.42432Z" fill="#0850AC"/>
</svg>
