<svg width="18" height="18" viewBox="0 0 18 18" fill="none" xmlns="http://www.w3.org/2000/svg">
<g clip-path="url(#clip0_2004_144)">
<path d="M9 0C5.2785 0 2.25 3.05643 2.25 6.8142C2.25 12.1536 8.3655 17.6666 8.62575 17.8981C8.733 17.9935 8.8665 18.0409 9 18.0409C9.1335 18.0409 9.267 17.9935 9.37425 17.8988C9.6345 17.6666 15.75 12.1536 15.75 6.8142C15.75 3.05643 12.7215 0 9 0ZM9 10.5239C6.93225 10.5239 5.25 8.83779 5.25 6.76534C5.25 4.69289 6.93225 3.00682 9 3.00682C11.0677 3.00682 12.75 4.69289 12.75 6.76534C12.75 8.83779 11.0677 10.5239 9 10.5239Z" fill="#4C5057"/>
</g>
<defs>
<clipPath id="clip0_2004_144">
<rect width="18" height="18" fill="white"/>
</clipPath>
</defs>
</svg>
