<svg width="36" height="36" viewBox="0 0 36 36" fill="none" xmlns="http://www.w3.org/2000/svg">
<rect width="36" height="36" rx="18" fill="#F8F8F8"/>
<path d="M18.0002 9.89993C14.6509 9.89993 11.9252 12.6507 11.9252 16.0327C11.9252 20.8381 17.4292 25.7998 17.6634 26.0082C17.7599 26.0941 17.8801 26.1367 18.0002 26.1367C18.1204 26.1367 18.2405 26.0941 18.337 26.0089C18.5713 25.7998 24.0752 20.8381 24.0752 16.0327C24.0752 12.6507 21.3496 9.89993 18.0002 9.89993ZM18.0002 19.3714C16.1392 19.3714 14.6252 17.8539 14.6252 15.9887C14.6252 14.1235 16.1392 12.6061 18.0002 12.6061C19.8612 12.6061 21.3752 14.1235 21.3752 15.9887C21.3752 17.8539 19.8612 19.3714 18.0002 19.3714Z" fill="#0850AC"/>
</svg>
