<svg width="156" height="32" viewBox="0 0 156 32" fill="none" xmlns="http://www.w3.org/2000/svg">
<path d="M14.8991 2.67908C20.7109 2.67908 22.9153 5.08045 22.9153 10.6836V17.8877C22.9153 18.4415 23.0226 19.4668 22.9153 19.9889L20.2979 16.6916V16.6746L17.9052 14.2388C17.9111 14.2359 18.9201 13.7365 19.4082 13.2595C19.941 12.7388 20.2373 12.2179 20.2979 12.1061V12.0758C20.5586 11.5974 20.5183 10.8251 20.5184 10.0166C20.5184 8.60361 19.6769 7.14307 19.5862 7.08159C18.8515 6.17132 17.5517 5.48067 16.2898 5.48067H5.11716V18.8883C5.11716 21.0987 6.8526 23.0907 9.06621 23.0907H16.2898C16.8683 23.0907 17.4179 22.7675 17.9146 22.5472L10.2696 13.8855V19.9889H7.68447V8.08216H16.881C16.8842 8.08216 16.8874 8.08247 16.8906 8.08255C16.8948 8.08249 16.899 8.08216 16.9031 8.08216C17.5672 8.08216 18.1056 8.84371 18.1056 9.78313C18.1056 10.7225 17.5672 11.4841 16.9031 11.4841C16.9021 11.4841 16.9011 11.4839 16.9 11.4839C16.8991 11.4839 16.8982 11.4841 16.8973 11.4841H12.521L20.2866 20.5596L21.9832 22.5472C20.5631 24.7915 18.7872 25.8923 14.8991 25.8923H10.6906C5.11716 25.8923 2.67432 23.2241 2.67432 17.8877V2.67908H14.8991Z" fill="#0850AC"/>
<path d="M32.8171 15.7665V12.9382H37.1583C38.046 12.9382 38.7296 12.7159 39.209 12.2712C39.7061 11.8087 39.9547 11.1772 39.9547 10.3768C39.9547 9.64746 39.7061 9.04267 39.209 8.5624C38.7296 8.06434 38.046 7.8153 37.1583 7.8153H32.8171V4.85362H37.4779C38.6852 4.85362 39.7417 5.09375 40.6472 5.57403C41.5704 6.03651 42.2807 6.67688 42.7778 7.49512C43.2927 8.31337 43.5502 9.25613 43.5502 10.3234C43.5502 11.4263 43.2927 12.3868 42.7778 13.205C42.2807 14.0055 41.5704 14.637 40.6472 15.0995C39.7239 15.5442 38.6497 15.7665 37.4246 15.7665H32.8171ZM30.1538 23.611V4.85362H33.7759V23.611H30.1538ZM40.3808 23.611L34.202 15.4997L37.5311 14.4591L44.7753 23.611H40.3808Z" fill="#0850AC"/>
<path d="M52.2406 23.8778C50.8912 23.8778 49.6927 23.5932 48.6452 23.024C47.5976 22.437 46.7631 21.6365 46.1417 20.6226C45.538 19.6087 45.2361 18.4525 45.2361 17.154C45.2361 15.8732 45.5291 14.7348 46.115 13.7387C46.7187 12.7248 47.5354 11.9243 48.5653 11.3373C49.5951 10.7325 50.7403 10.4301 52.0009 10.4301C53.2438 10.4301 54.3357 10.7147 55.2767 11.2839C56.2355 11.8354 56.9812 12.6003 57.5139 13.5786C58.0643 14.5391 58.3395 15.6331 58.3395 16.8605C58.3395 17.0917 58.3218 17.3318 58.2863 17.5809C58.2685 17.8121 58.2241 18.0789 58.1531 18.3813L47.3401 18.408V15.7932L56.5285 15.7665L55.1169 16.8605C55.0814 16.0956 54.9394 15.4552 54.6908 14.9394C54.46 14.4235 54.1138 14.0322 53.6521 13.7654C53.2083 13.4808 52.6578 13.3385 52.0009 13.3385C51.3084 13.3385 50.7048 13.4985 50.1899 13.8187C49.675 14.1211 49.2755 14.5569 48.9914 15.1261C48.725 15.6776 48.5919 16.3357 48.5919 17.1006C48.5919 17.8833 48.7339 18.5681 49.018 19.1551C49.3199 19.7243 49.746 20.169 50.2964 20.4892C50.8468 20.7916 51.486 20.9428 52.214 20.9428C52.8709 20.9428 53.4657 20.8361 53.9984 20.6226C54.531 20.3914 54.9927 20.0534 55.3833 19.6087L57.434 21.6632C56.8126 22.3925 56.0491 22.9439 55.1436 23.3175C54.2558 23.691 53.2882 23.8778 52.2406 23.8778Z" fill="#0850AC"/>
<path d="M67.6348 23.8778C66.7115 23.8778 65.877 23.691 65.1313 23.3175C64.3856 22.9261 63.7908 22.4014 63.3469 21.7432C62.903 21.0851 62.6633 20.3291 62.6278 19.4753V14.9127C62.6633 14.0589 62.903 13.3029 63.3469 12.6447C63.8086 11.9688 64.4034 11.4351 65.1313 11.0438C65.877 10.6525 66.7115 10.4568 67.6348 10.4568C68.8244 10.4568 69.8897 10.7503 70.8308 11.3373C71.7718 11.9243 72.5086 12.7248 73.0413 13.7387C73.5917 14.7526 73.8669 15.8999 73.8669 17.1806C73.8669 18.4436 73.5917 19.582 73.0413 20.5959C72.5086 21.6098 71.7718 22.4103 70.8308 22.9973C69.8897 23.5843 68.8244 23.8778 67.6348 23.8778ZM60.4972 29.0007V10.7236H63.9861V14.1122L63.4002 17.234L63.9595 20.3558V29.0007H60.4972ZM67.0223 20.6493C67.6615 20.6493 68.2296 20.507 68.7268 20.2224C69.2239 19.92 69.6057 19.5109 69.872 18.995C70.1561 18.4614 70.2981 17.8477 70.2981 17.154C70.2981 16.478 70.1561 15.8821 69.872 15.3663C69.6057 14.8326 69.2239 14.4235 68.7268 14.1389C68.2296 13.8365 67.6615 13.6853 67.0223 13.6853C66.4008 13.6853 65.8415 13.8365 65.3444 14.1389C64.8472 14.4235 64.4566 14.8326 64.1725 15.3663C63.9062 15.8821 63.7731 16.478 63.7731 17.154C63.7731 17.8477 63.9062 18.4614 64.1725 18.995C64.4566 19.5109 64.8384 19.92 65.3178 20.2224C65.8149 20.507 66.3831 20.6493 67.0223 20.6493Z" fill="#0850AC"/>
<path d="M82.2001 23.8778C80.904 23.8778 79.7321 23.5843 78.6846 22.9973C77.6548 22.3925 76.8291 21.5832 76.2077 20.5692C75.604 19.5375 75.3022 18.3902 75.3022 17.1273C75.3022 15.8643 75.604 14.7348 76.2077 13.7387C76.8114 12.7248 77.637 11.9243 78.6846 11.3373C79.7321 10.7325 80.8951 10.4301 82.1735 10.4301C83.4874 10.4301 84.6592 10.7325 85.689 11.3373C86.7366 11.9243 87.5622 12.7248 88.1659 13.7387C88.7695 14.7348 89.0714 15.8643 89.0714 17.1273C89.0714 18.3902 88.7695 19.5375 88.1659 20.5692C87.5622 21.5832 86.7366 22.3925 85.689 22.9973C84.6592 23.5843 83.4962 23.8778 82.2001 23.8778ZM82.1735 20.6226C82.8304 20.6226 83.4075 20.4803 83.9046 20.1957C84.4195 19.8933 84.8101 19.4842 85.0765 18.9683C85.3605 18.4347 85.5026 17.8299 85.5026 17.154C85.5026 16.478 85.3605 15.8821 85.0765 15.3663C84.7924 14.8504 84.4018 14.4502 83.9046 14.1656C83.4075 13.8632 82.8304 13.712 82.1735 13.712C81.5343 13.712 80.9661 13.8632 80.469 14.1656C79.9718 14.4502 79.5812 14.8504 79.2971 15.3663C79.013 15.8821 78.871 16.478 78.871 17.154C78.871 17.8299 79.013 18.4347 79.2971 18.9683C79.5812 19.4842 79.9718 19.8933 80.469 20.1957C80.9661 20.4803 81.5343 20.6226 82.1735 20.6226Z" fill="#0850AC"/>
<path d="M91.3175 23.611V10.7236H94.8064V23.611H91.3175ZM94.8064 16.4869L93.4481 15.5797C93.6079 13.9966 94.0696 12.7515 94.833 11.8443C95.5965 10.9193 96.6973 10.4568 98.1355 10.4568C98.757 10.4568 99.3162 10.5635 99.8134 10.777C100.311 10.9727 100.763 11.3017 101.172 11.7642L98.9878 14.2723C98.7925 14.0589 98.5528 13.8988 98.2687 13.792C98.0023 13.6853 97.6916 13.632 97.3365 13.632C96.5908 13.632 95.9783 13.8721 95.4989 14.3524C95.0372 14.8149 94.8064 15.5264 94.8064 16.4869Z" fill="#0850AC"/>
<path d="M104.366 23.611V5.36057H107.855V23.611H104.366ZM101.357 13.792V10.7236H110.865V13.792H101.357Z" fill="#0850AC"/>
<path d="M112.827 23.611V4.31998H116.316V23.611H112.827Z" fill="#0850AC"/>
<path d="M119.407 23.611V10.7236H122.922V23.611H119.407ZM121.165 8.64244C120.596 8.64244 120.126 8.45567 119.753 8.08212C119.38 7.69079 119.194 7.21051 119.194 6.6413C119.194 6.08988 119.38 5.6185 119.753 5.22716C120.126 4.83583 120.596 4.64016 121.165 4.64016C121.751 4.64016 122.221 4.83583 122.576 5.22716C122.949 5.6185 123.135 6.08988 123.135 6.6413C123.135 7.21051 122.949 7.69079 122.576 8.08212C122.221 8.45567 121.751 8.64244 121.165 8.64244Z" fill="#0850AC"/>
<path d="M134.669 23.611V16.2201C134.669 15.4552 134.429 14.8326 133.95 14.3524C133.47 13.8721 132.849 13.632 132.085 13.632C131.588 13.632 131.144 13.7387 130.754 13.9521C130.363 14.1656 130.052 14.468 129.822 14.8593C129.609 15.2507 129.502 15.7042 129.502 16.2201L128.144 15.5264C128.144 14.5125 128.357 13.632 128.783 12.8849C129.227 12.12 129.83 11.5241 130.594 11.0972C131.375 10.6703 132.254 10.4568 133.231 10.4568C134.172 10.4568 135.015 10.6969 135.761 11.1772C136.506 11.6397 137.092 12.2534 137.518 13.0183C137.945 13.7654 138.158 14.5747 138.158 15.4463V23.611H134.669ZM126.013 23.611V10.7236H129.502V23.611H126.013Z" fill="#0850AC"/>
<path d="M146.348 29.3209C144.981 29.3209 143.773 29.0719 142.726 28.5738C141.678 28.0935 140.844 27.4087 140.222 26.5193L142.433 24.3047C142.93 24.8917 143.48 25.3364 144.084 25.6388C144.706 25.959 145.451 26.1191 146.321 26.1191C147.404 26.1191 148.257 25.8434 148.878 25.2919C149.517 24.7405 149.837 23.9756 149.837 22.9973V19.7688L150.423 16.9405L149.863 14.1122V10.7236H153.326V22.9439C153.326 24.2247 153.024 25.3364 152.42 26.2792C151.834 27.2397 151.018 27.9868 149.97 28.5204C148.922 29.0541 147.715 29.3209 146.348 29.3209ZM146.188 23.2641C145.034 23.2641 143.995 22.9884 143.072 22.437C142.149 21.8678 141.421 21.094 140.888 20.1157C140.373 19.1373 140.116 18.0434 140.116 16.8338C140.116 15.6242 140.373 14.5391 140.888 13.5786C141.421 12.618 142.149 11.8621 143.072 11.3106C143.995 10.7414 145.034 10.4568 146.188 10.4568C147.147 10.4568 147.99 10.6436 148.718 11.0171C149.464 11.3907 150.05 11.9065 150.476 12.5647C150.902 13.205 151.133 13.961 151.168 14.8326V18.8883C151.133 19.7421 150.893 20.507 150.449 21.1829C150.023 21.8411 149.437 22.3569 148.692 22.7305C147.964 23.0862 147.129 23.2641 146.188 23.2641ZM146.881 20.089C147.52 20.089 148.07 19.9556 148.532 19.6887C149.011 19.4041 149.384 19.0217 149.65 18.5414C149.917 18.0434 150.05 17.483 150.05 16.8605C150.05 16.2201 149.917 15.6598 149.65 15.1795C149.384 14.6992 149.011 14.3257 148.532 14.0589C148.07 13.7743 147.52 13.632 146.881 13.632C146.241 13.632 145.682 13.7743 145.203 14.0589C144.723 14.3257 144.35 14.7081 144.084 15.2062C143.818 15.6865 143.685 16.2379 143.685 16.8605C143.685 17.4653 143.818 18.0167 144.084 18.5147C144.35 18.995 144.723 19.3775 145.203 19.6621C145.682 19.9467 146.241 20.089 146.881 20.089Z" fill="#0850AC"/>
</svg>
