<svg width="141" height="38" viewBox="0 0 141 38" fill="none" xmlns="http://www.w3.org/2000/svg">
<path d="M43.0341 3.36364V15H41.2784V3.36364H43.0341ZM54.983 3.36364V15H53.3693L47.4545 6.46591H47.3466V15H45.5909V3.36364H47.2159L53.1364 11.9091H53.2443V3.36364H54.983ZM63.8906 6.42045C63.83 5.88258 63.58 5.46591 63.1406 5.17045C62.7012 4.87121 62.1482 4.72159 61.4815 4.72159C61.0043 4.72159 60.5914 4.79735 60.2429 4.94886C59.8944 5.09659 59.6236 5.30114 59.4304 5.5625C59.241 5.82008 59.1463 6.11364 59.1463 6.44318C59.1463 6.7197 59.2107 6.95833 59.3395 7.15909C59.4721 7.35985 59.6444 7.52841 59.8565 7.66477C60.0724 7.79735 60.3035 7.90909 60.5497 8C60.7959 8.08712 61.0327 8.15909 61.2599 8.21591L62.3963 8.51136C62.7675 8.60227 63.1482 8.72538 63.5384 8.88068C63.9285 9.03598 64.2902 9.24053 64.6236 9.49432C64.9569 9.74811 65.2259 10.0625 65.4304 10.4375C65.6387 10.8125 65.7429 11.2614 65.7429 11.7841C65.7429 12.4432 65.5724 13.0284 65.2315 13.5398C64.8944 14.0511 64.4039 14.4545 63.7599 14.75C63.1198 15.0455 62.3452 15.1932 61.4361 15.1932C60.5649 15.1932 59.8111 15.0549 59.1747 14.7784C58.5384 14.5019 58.0402 14.1098 57.6804 13.6023C57.3205 13.0909 57.1217 12.4848 57.0838 11.7841H58.8452C58.8793 12.2045 59.0156 12.5549 59.2543 12.8352C59.4967 13.1117 59.8054 13.3182 60.1804 13.4545C60.5592 13.5871 60.974 13.6534 61.4247 13.6534C61.9209 13.6534 62.3622 13.5758 62.7486 13.4205C63.1387 13.2614 63.4455 13.0417 63.669 12.7614C63.8925 12.4773 64.0043 12.1458 64.0043 11.767C64.0043 11.4223 63.9058 11.1402 63.7088 10.9205C63.5156 10.7008 63.2524 10.5189 62.919 10.375C62.5895 10.2311 62.2164 10.1042 61.7997 9.99432L60.4247 9.61932C59.4929 9.36553 58.7543 8.99242 58.2088 8.5C57.6671 8.00758 57.3963 7.35606 57.3963 6.54545C57.3963 5.875 57.5781 5.28977 57.9418 4.78977C58.3054 4.28977 58.7978 3.90151 59.419 3.625C60.0402 3.3447 60.741 3.20455 61.5213 3.20455C62.3092 3.20455 63.0043 3.3428 63.6065 3.61932C64.2126 3.89583 64.6899 4.27652 65.0384 4.76136C65.3868 5.24242 65.5687 5.79545 65.5838 6.42045H63.8906ZM67.8409 15V3.36364H71.9886C72.8939 3.36364 73.6439 3.52841 74.2386 3.85795C74.8333 4.1875 75.2784 4.63826 75.5739 5.21023C75.8693 5.77841 76.017 6.41856 76.017 7.13068C76.017 7.84659 75.8674 8.49053 75.5682 9.0625C75.2727 9.63068 74.8258 10.0814 74.2273 10.4148C73.6326 10.7443 72.8845 10.9091 71.983 10.9091H69.1307V9.42045H71.8239C72.3958 9.42045 72.8598 9.32197 73.2159 9.125C73.572 8.92424 73.8333 8.65152 74 8.30682C74.1667 7.96212 74.25 7.57008 74.25 7.13068C74.25 6.69129 74.1667 6.30114 74 5.96023C73.8333 5.61932 73.5701 5.35227 73.2102 5.15909C72.8542 4.96591 72.3845 4.86932 71.8011 4.86932H69.5966V15H67.8409ZM77.8239 15H75.9602L80.1477 3.36364H82.1761L86.3636 15H84.5L81.2102 5.47727H81.1193L77.8239 15ZM78.1364 10.4432H84.1818V11.9205H78.1364V10.4432ZM97.1619 7.14773H95.3892C95.321 6.76894 95.1941 6.43561 95.0085 6.14773C94.8229 5.85985 94.5956 5.61553 94.3267 5.41477C94.0578 5.21401 93.7566 5.0625 93.4233 4.96023C93.0938 4.85795 92.7434 4.80682 92.3722 4.80682C91.7017 4.80682 91.1013 4.97538 90.571 5.3125C90.0445 5.64962 89.6278 6.14394 89.321 6.79545C89.018 7.44697 88.8665 8.24242 88.8665 9.18182C88.8665 10.1288 89.018 10.928 89.321 11.5795C89.6278 12.2311 90.0464 12.7235 90.5767 13.0568C91.107 13.3902 91.7036 13.5568 92.3665 13.5568C92.7339 13.5568 93.0824 13.5076 93.4119 13.4091C93.7453 13.3068 94.0464 13.1572 94.3153 12.9602C94.5843 12.7633 94.8116 12.5227 94.9972 12.2386C95.1866 11.9508 95.3172 11.6212 95.3892 11.25L97.1619 11.2557C97.0672 11.8277 96.8835 12.3542 96.6108 12.8352C96.3419 13.3125 95.9953 13.7254 95.571 14.0739C95.1506 14.4186 94.6695 14.6856 94.1278 14.875C93.5862 15.0644 92.9953 15.1591 92.3551 15.1591C91.3475 15.1591 90.4498 14.9205 89.6619 14.4432C88.8741 13.9621 88.2528 13.2746 87.7983 12.3807C87.3475 11.4867 87.1222 10.4205 87.1222 9.18182C87.1222 7.93939 87.3494 6.87311 87.804 5.98295C88.2585 5.08901 88.8797 4.40341 89.6676 3.92614C90.4555 3.44508 91.3513 3.20455 92.3551 3.20455C92.9725 3.20455 93.5483 3.29356 94.0824 3.47159C94.6203 3.64583 95.1032 3.90341 95.5312 4.24432C95.9593 4.58144 96.3134 4.99432 96.5938 5.48295C96.8741 5.9678 97.0634 6.52273 97.1619 7.14773ZM98.6889 4.875V3.36364H107.695V4.875H104.064V15H102.314V4.875H98.6889ZM111.44 3.36364V15H109.685V3.36364H111.44ZM124.105 9.18182C124.105 10.4242 123.878 11.4924 123.423 12.3864C122.969 13.2765 122.346 13.9621 121.554 14.4432C120.766 14.9205 119.87 15.1591 118.866 15.1591C117.859 15.1591 116.959 14.9205 116.168 14.4432C115.38 13.9621 114.759 13.2746 114.304 12.3807C113.849 11.4867 113.622 10.4205 113.622 9.18182C113.622 7.93939 113.849 6.87311 114.304 5.98295C114.759 5.08901 115.38 4.40341 116.168 3.92614C116.959 3.44508 117.859 3.20455 118.866 3.20455C119.87 3.20455 120.766 3.44508 121.554 3.92614C122.346 4.40341 122.969 5.08901 123.423 5.98295C123.878 6.87311 124.105 7.93939 124.105 9.18182ZM122.366 9.18182C122.366 8.23485 122.213 7.4375 121.906 6.78977C121.603 6.13826 121.187 5.64583 120.656 5.3125C120.13 4.97538 119.533 4.80682 118.866 4.80682C118.196 4.80682 117.598 4.97538 117.071 5.3125C116.545 5.64583 116.128 6.13826 115.821 6.78977C115.518 7.4375 115.366 8.23485 115.366 9.18182C115.366 10.1288 115.518 10.928 115.821 11.5795C116.128 12.2273 116.545 12.7197 117.071 13.0568C117.598 13.3902 118.196 13.5568 118.866 13.5568C119.533 13.5568 120.13 13.3902 120.656 13.0568C121.187 12.7197 121.603 12.2273 121.906 11.5795C122.213 10.928 122.366 10.1288 122.366 9.18182ZM135.686 3.36364V15H134.072L128.158 6.46591H128.05V15H126.294V3.36364H127.919L133.839 11.9091H133.947V3.36364H135.686Z" fill="black"/>
<path d="M47.625 26.4205C47.5644 25.8826 47.3144 25.4659 46.875 25.1705C46.4356 24.8712 45.8826 24.7216 45.2159 24.7216C44.7386 24.7216 44.3258 24.7973 43.9773 24.9489C43.6288 25.0966 43.358 25.3011 43.1648 25.5625C42.9754 25.8201 42.8807 26.1136 42.8807 26.4432C42.8807 26.7197 42.9451 26.9583 43.0739 27.1591C43.2064 27.3598 43.3788 27.5284 43.5909 27.6648C43.8068 27.7973 44.0379 27.9091 44.2841 28C44.5303 28.0871 44.767 28.1591 44.9943 28.2159L46.1307 28.5114C46.5019 28.6023 46.8826 28.7254 47.2727 28.8807C47.6629 29.036 48.0246 29.2405 48.358 29.4943C48.6913 29.7481 48.9602 30.0625 49.1648 30.4375C49.3731 30.8125 49.4773 31.2614 49.4773 31.7841C49.4773 32.4432 49.3068 33.0284 48.9659 33.5398C48.6288 34.0511 48.1383 34.4545 47.4943 34.75C46.8542 35.0455 46.0795 35.1932 45.1705 35.1932C44.2992 35.1932 43.5455 35.0549 42.9091 34.7784C42.2727 34.5019 41.7746 34.1098 41.4148 33.6023C41.0549 33.0909 40.8561 32.4848 40.8182 31.7841H42.5795C42.6136 32.2045 42.75 32.5549 42.9886 32.8352C43.2311 33.1117 43.5398 33.3182 43.9148 33.4545C44.2936 33.5871 44.7083 33.6534 45.1591 33.6534C45.6553 33.6534 46.0966 33.5758 46.483 33.4205C46.8731 33.2614 47.1799 33.0417 47.4034 32.7614C47.6269 32.4773 47.7386 32.1458 47.7386 31.767C47.7386 31.4223 47.6402 31.1402 47.4432 30.9205C47.25 30.7008 46.9867 30.5189 46.6534 30.375C46.3239 30.2311 45.9508 30.1042 45.5341 29.9943L44.1591 29.6193C43.2273 29.3655 42.4886 28.9924 41.9432 28.5C41.4015 28.0076 41.1307 27.3561 41.1307 26.5455C41.1307 25.875 41.3125 25.2898 41.6761 24.7898C42.0398 24.2898 42.5322 23.9015 43.1534 23.625C43.7746 23.3447 44.4754 23.2045 45.2557 23.2045C46.0436 23.2045 46.7386 23.3428 47.3409 23.6193C47.947 23.8958 48.4242 24.2765 48.7727 24.7614C49.1212 25.2424 49.303 25.7955 49.3182 26.4205H47.625ZM51.5753 35V23.3636H53.331V28.4205H59.1321V23.3636H60.8935V35H59.1321V29.9261H53.331V35H51.5753ZM63.4503 35V23.3636H70.7457V24.875H65.206V28.4205H70.3651V29.9261H65.206V33.4886H70.8139V35H63.4503ZM73.0909 35V23.3636H77.2386C78.1402 23.3636 78.8883 23.5189 79.483 23.8295C80.0814 24.1402 80.5284 24.5701 80.8239 25.1193C81.1193 25.6648 81.267 26.2955 81.267 27.0114C81.267 27.7235 81.1174 28.3504 80.8182 28.892C80.5227 29.4299 80.0758 29.8485 79.4773 30.1477C78.8826 30.447 78.1345 30.5966 77.233 30.5966H74.0909V29.0852H77.0739C77.642 29.0852 78.1042 29.0038 78.4602 28.8409C78.8201 28.678 79.0833 28.4413 79.25 28.1307C79.4167 27.8201 79.5 27.447 79.5 27.0114C79.5 26.572 79.4148 26.1913 79.2443 25.8693C79.0777 25.5473 78.8144 25.3011 78.4545 25.1307C78.0985 24.9564 77.6307 24.8693 77.0511 24.8693H74.8466V35H73.0909ZM78.8352 29.75L81.7102 35H79.7102L76.892 29.75H78.8352ZM85.1591 23.3636V35H83.4034V23.3636H85.1591ZM97.108 23.3636V35H95.4943L89.5795 26.4659H89.4716V35H87.7159V23.3636H89.3409L95.2614 31.9091H95.3693V23.3636H97.108ZM107.544 27.0398C107.434 26.6951 107.286 26.3864 107.101 26.1136C106.919 25.8371 106.701 25.6023 106.447 25.4091C106.194 25.2121 105.904 25.0625 105.578 24.9602C105.256 24.858 104.902 24.8068 104.516 24.8068C103.86 24.8068 103.269 24.9754 102.743 25.3125C102.216 25.6496 101.8 26.1439 101.493 26.7955C101.19 27.4432 101.038 28.2367 101.038 29.1761C101.038 30.1193 101.192 30.9167 101.499 31.5682C101.805 32.2197 102.226 32.714 102.76 33.0511C103.294 33.3883 103.902 33.5568 104.584 33.5568C105.216 33.5568 105.768 33.428 106.237 33.1705C106.711 32.9129 107.076 32.5492 107.334 32.0795C107.595 31.6061 107.726 31.0492 107.726 30.4091L108.18 30.4943H104.851V29.0455H109.425V30.3693C109.425 31.3466 109.216 32.1951 108.8 32.9148C108.387 33.6307 107.815 34.1837 107.084 34.5739C106.357 34.964 105.523 35.1591 104.584 35.1591C103.531 35.1591 102.607 34.9167 101.811 34.4318C101.019 33.947 100.402 33.2595 99.9588 32.3693C99.5156 31.4754 99.294 30.4148 99.294 29.1875C99.294 28.2595 99.4228 27.4261 99.6804 26.6875C99.938 25.9489 100.3 25.322 100.766 24.8068C101.235 24.2879 101.786 23.892 102.419 23.6193C103.055 23.3428 103.75 23.2045 104.504 23.2045C105.133 23.2045 105.718 23.2973 106.26 23.483C106.805 23.6686 107.29 23.9318 107.714 24.2727C108.143 24.6136 108.497 25.0189 108.777 25.4886C109.057 25.9545 109.247 26.4716 109.345 27.0398H107.544Z" fill="black"/>
<rect y="2" width="17" height="17" rx="5" fill="#0850AC"/>
<rect x="17" y="19" width="17" height="17" rx="5" fill="#0850AC"/>
</svg>
