<svg width="141" height="38" viewBox="0 0 141 38" fill="none" xmlns="http://www.w3.org/2000/svg">
<g clip-path="url(#clip0_2002_179)">
<path d="M135.905 3.36363V15H134.291L128.376 6.46591H128.268V15H126.513V3.36363H128.138L134.058 11.9091H134.166V3.36363H135.905Z" fill="black"/>
<path d="M124.324 9.18182C124.324 10.4242 124.096 11.4924 123.642 12.3864C123.187 13.2765 122.564 13.9621 121.773 14.4432C120.985 14.9205 120.089 15.1591 119.085 15.1591C118.078 15.1591 117.178 14.9205 116.386 14.4432C115.598 13.9621 114.977 13.2746 114.523 12.3807C114.068 11.4867 113.841 10.4205 113.841 9.18182C113.841 7.93939 114.068 6.8731 114.523 5.98295C114.977 5.08901 115.598 4.40341 116.386 3.92614C117.178 3.44507 118.078 3.20454 119.085 3.20454C120.089 3.20454 120.985 3.44507 121.773 3.92614C122.564 4.40341 123.187 5.08901 123.642 5.98295C124.096 6.8731 124.324 7.93939 124.324 9.18182ZM122.585 9.18182C122.585 8.23485 122.432 7.4375 122.125 6.78977C121.822 6.13826 121.405 5.64583 120.875 5.3125C120.348 4.97538 119.752 4.80682 119.085 4.80682C118.415 4.80682 117.816 4.97538 117.29 5.3125C116.763 5.64583 116.346 6.13826 116.04 6.78977C115.737 7.4375 115.585 8.23485 115.585 9.18182C115.585 10.1288 115.737 10.928 116.04 11.5795C116.346 12.2273 116.763 12.7197 117.29 13.0568C117.816 13.3902 118.415 13.5568 119.085 13.5568C119.752 13.5568 120.348 13.3902 120.875 13.0568C121.405 12.7197 121.822 12.2273 122.125 11.5795C122.432 10.928 122.585 10.1288 122.585 9.18182Z" fill="black"/>
<path d="M111.659 3.36363V15H109.903V3.36363H111.659Z" fill="black"/>
<path d="M98.9075 4.875V3.36363H107.913V4.875H104.282V15H102.532V4.875H98.9075Z" fill="black"/>
<path d="M97.3806 7.14773H95.6079C95.5397 6.76894 95.4128 6.4356 95.2272 6.14773C95.0416 5.85985 94.8143 5.61553 94.5454 5.41477C94.2764 5.21401 93.9753 5.0625 93.642 4.96023C93.3124 4.85795 92.962 4.80682 92.5908 4.80682C91.9204 4.80682 91.32 4.97538 90.7897 5.3125C90.2632 5.64962 89.8465 6.14394 89.5397 6.79545C89.2367 7.44697 89.0851 8.24242 89.0851 9.18182C89.0851 10.1288 89.2367 10.928 89.5397 11.5795C89.8465 12.2311 90.2651 12.7235 90.7954 13.0568C91.3257 13.3902 91.9223 13.5568 92.5851 13.5568C92.9526 13.5568 93.3011 13.5076 93.6306 13.4091C93.9639 13.3068 94.2651 13.1572 94.534 12.9602C94.8029 12.7633 95.0302 12.5227 95.2158 12.2386C95.4052 11.9508 95.5359 11.6212 95.6079 11.25L97.3806 11.2557C97.2859 11.8277 97.1022 12.3542 96.8295 12.8352C96.5605 13.3125 96.2139 13.7254 95.7897 14.0739C95.3692 14.4186 94.8882 14.6856 94.3465 14.875C93.8048 15.0644 93.2139 15.1591 92.5738 15.1591C91.5662 15.1591 90.6685 14.9205 89.8806 14.4432C89.0927 13.9621 88.4715 13.2746 88.017 12.3807C87.5662 11.4867 87.3408 10.4205 87.3408 9.18182C87.3408 7.93939 87.5681 6.8731 88.0226 5.98295C88.4772 5.08901 89.0984 4.40341 89.8863 3.92614C90.6742 3.44507 91.57 3.20454 92.5738 3.20454C93.1912 3.20454 93.767 3.29356 94.301 3.47159C94.8389 3.64583 95.3219 3.90341 95.7499 4.24432C96.1779 4.58144 96.5321 4.99432 96.8124 5.48295C97.0927 5.9678 97.2821 6.52273 97.3806 7.14773Z" fill="black"/>
<path d="M78.0752 15V3.36363H85.3707V4.875H79.8309V8.42045H84.99V9.92613H79.8309V13.4886H85.4388V15H78.0752Z" fill="black"/>
<path d="M67.8408 15V3.36363H71.9885C72.8938 3.36363 73.6438 3.5284 74.2385 3.85795C74.8332 4.1875 75.2783 4.63825 75.5738 5.21022C75.8692 5.77841 76.017 6.41856 76.017 7.13068C76.017 7.84659 75.8673 8.49053 75.5681 9.0625C75.2726 9.63068 74.8257 10.0814 74.2272 10.4148C73.6325 10.7443 72.8844 10.9091 71.9829 10.9091H69.1306V9.42045H71.8238C72.3957 9.42045 72.8598 9.32197 73.2158 9.125C73.5719 8.92424 73.8332 8.65151 73.9999 8.30681C74.1666 7.96212 74.2499 7.57007 74.2499 7.13068C74.2499 6.69128 74.1666 6.30113 73.9999 5.96022C73.8332 5.61931 73.57 5.35227 73.2101 5.15909C72.8541 4.96591 72.3844 4.86931 71.801 4.86931H69.5965V15H67.8408Z" fill="black"/>
<path d="M63.8906 6.42045C63.83 5.88257 63.58 5.46591 63.1406 5.17045C62.7012 4.87121 62.1481 4.72159 61.4815 4.72159C61.0042 4.72159 60.5913 4.79735 60.2428 4.94886C59.8943 5.09659 59.6235 5.30114 59.4303 5.5625C59.2409 5.82007 59.1462 6.11364 59.1462 6.44318C59.1462 6.7197 59.2106 6.95833 59.3394 7.15909C59.472 7.35985 59.6443 7.52841 59.8565 7.66477C60.0724 7.79735 60.3034 7.90909 60.5497 8C60.7959 8.08712 61.0326 8.15909 61.2599 8.21591L62.3962 8.51136C62.7675 8.60227 63.1481 8.72538 63.5383 8.88068C63.9284 9.03598 64.2902 9.24053 64.6235 9.49432C64.9568 9.74811 65.2258 10.0625 65.4303 10.4375C65.6387 10.8125 65.7428 11.2614 65.7428 11.7841C65.7428 12.4432 65.5724 13.0284 65.2315 13.5398C64.8943 14.0511 64.4038 14.4545 63.7599 14.75C63.1197 15.0455 62.3451 15.1932 61.436 15.1932C60.5648 15.1932 59.811 15.0549 59.1747 14.7784C58.5383 14.5019 58.0402 14.1098 57.6803 13.6023C57.3205 13.0909 57.1216 12.4848 57.0837 11.7841H58.8451C58.8792 12.2045 59.0156 12.5549 59.2542 12.8352C59.4966 13.1117 59.8053 13.3182 60.1803 13.4545C60.5591 13.5871 60.9739 13.6534 61.4247 13.6534C61.9209 13.6534 62.3621 13.5758 62.7485 13.4205C63.1387 13.2614 63.4455 13.0417 63.669 12.7614C63.8925 12.4773 64.0042 12.1458 64.0042 11.767C64.0042 11.4223 63.9057 11.1402 63.7087 10.9205C63.5156 10.7008 63.2523 10.5189 62.919 10.375C62.5894 10.2311 62.2163 10.1042 61.7997 9.99432L60.4247 9.61932C59.4928 9.36553 58.7542 8.99242 58.2087 8.5C57.6671 8.00757 57.3962 7.35606 57.3962 6.54545C57.3962 5.875 57.5781 5.28977 57.9417 4.78977C58.3053 4.28977 58.7978 3.90151 59.419 3.625C60.0402 3.3447 60.7409 3.20454 61.5212 3.20454C62.3091 3.20454 63.0042 3.3428 63.6065 3.61932C64.2125 3.89583 64.6898 4.27651 65.0383 4.76136C65.3868 5.24242 65.5686 5.79545 65.5837 6.42045H63.8906Z" fill="black"/>
<path d="M54.9829 3.36363V15H53.3692L47.4545 6.46591H47.3465V15H45.5908V3.36363H47.2158L53.1363 11.9091H53.2442V3.36363H54.9829Z" fill="black"/>
<path d="M43.034 3.36363V15H41.2783V3.36363H43.034Z" fill="black"/>
<path d="M109.106 27.0398C108.997 26.6951 108.849 26.3864 108.663 26.1136C108.481 25.8371 108.264 25.6023 108.01 25.4091C107.756 25.2121 107.466 25.0625 107.141 24.9602C106.819 24.858 106.464 24.8068 106.078 24.8068C105.423 24.8068 104.832 24.9754 104.305 25.3125C103.779 25.6496 103.362 26.1439 103.055 26.7955C102.752 27.4432 102.601 28.2367 102.601 29.1761C102.601 30.1193 102.754 30.9167 103.061 31.5682C103.368 32.2197 103.788 32.714 104.322 33.0511C104.856 33.3883 105.464 33.5568 106.146 33.5568C106.779 33.5568 107.33 33.428 107.8 33.1705C108.273 32.9129 108.639 32.5492 108.896 32.0795C109.158 31.6061 109.288 31.0492 109.288 30.4091L109.743 30.4943H106.413V29.0455H110.987V30.3693C110.987 31.3466 110.779 32.1951 110.362 32.9148C109.949 33.6307 109.377 34.1837 108.646 34.5739C107.919 34.964 107.086 35.1591 106.146 35.1591C105.093 35.1591 104.169 34.9167 103.373 34.4318C102.582 33.947 101.964 33.2595 101.521 32.3693C101.078 31.4754 100.856 30.4148 100.856 29.1875C100.856 28.2595 100.985 27.4261 101.243 26.6875C101.5 25.9489 101.862 25.322 102.328 24.8068C102.798 24.2879 103.349 23.892 103.981 23.6193C104.618 23.3428 105.313 23.2045 106.067 23.2045C106.695 23.2045 107.281 23.2973 107.822 23.483C108.368 23.6686 108.853 23.9318 109.277 24.2727C109.705 24.6136 110.059 25.0189 110.339 25.4886C110.62 25.9545 110.809 26.4716 110.908 27.0398H109.106Z" fill="black"/>
<path d="M98.6704 23.3636V35H97.0567L91.142 26.4659H91.034V35H89.2783V23.3636H90.9033L96.8238 31.9091H96.9317V23.3636H98.6704Z" fill="black"/>
<path d="M86.7215 23.3636V35H84.9658V23.3636H86.7215Z" fill="black"/>
<path d="M74.6533 35V23.3636H78.801C79.7026 23.3636 80.4507 23.5189 81.0454 23.8295C81.6439 24.1401 82.0908 24.5701 82.3863 25.1193C82.6817 25.6648 82.8295 26.2955 82.8295 27.0114C82.8295 27.7235 82.6798 28.3504 82.3806 28.892C82.0851 29.4299 81.6382 29.8485 81.0397 30.1477C80.445 30.447 79.6969 30.5966 78.7954 30.5966H75.6533V29.0852H78.6363C79.2045 29.0852 79.6666 29.0038 80.0226 28.8409C80.3825 28.678 80.6457 28.4413 80.8124 28.1307C80.9791 27.8201 81.0624 27.447 81.0624 27.0114C81.0624 26.572 80.9772 26.1913 80.8067 25.8693C80.6401 25.5473 80.3768 25.3011 80.017 25.1307C79.6609 24.9564 79.1931 24.8693 78.6135 24.8693H76.409V35H74.6533ZM80.3976 29.75L83.2726 35H81.2726L78.4545 29.75H80.3976Z" fill="black"/>
<path d="M64.4332 35H62.5696L66.7571 23.3636H68.7855L72.973 35H71.1094L67.8196 25.4773H67.7287L64.4332 35ZM64.7457 30.4432H70.7912V31.9205H64.7457V30.4432Z" fill="black"/>
<path d="M51.5752 35V23.3636H53.3309V28.4205H59.132V23.3636H60.8934V35H59.132V29.9261H53.3309V35H51.5752Z" fill="black"/>
<path d="M47.6249 26.4205C47.5643 25.8826 47.3143 25.4659 46.8749 25.1705C46.4355 24.8712 45.8825 24.7216 45.2158 24.7216C44.7386 24.7216 44.3257 24.7973 43.9772 24.9489C43.6287 25.0966 43.3579 25.3011 43.1647 25.5625C42.9753 25.8201 42.8806 26.1136 42.8806 26.4432C42.8806 26.7197 42.945 26.9583 43.0738 27.1591C43.2064 27.3598 43.3787 27.5284 43.5908 27.6648C43.8068 27.7973 44.0378 27.9091 44.284 28C44.5302 28.0871 44.767 28.1591 44.9943 28.2159L46.1306 28.5114C46.5018 28.6023 46.8825 28.7254 47.2727 28.8807C47.6628 29.036 48.0246 29.2405 48.3579 29.4943C48.6912 29.7481 48.9602 30.0625 49.1647 30.4375C49.373 30.8125 49.4772 31.2614 49.4772 31.7841C49.4772 32.4432 49.3068 33.0284 48.9658 33.5398C48.6287 34.0511 48.1382 34.4545 47.4943 34.75C46.8541 35.0455 46.0795 35.1932 45.1704 35.1932C44.2992 35.1932 43.5454 35.0549 42.909 34.7784C42.2727 34.5019 41.7746 34.1098 41.4147 33.6023C41.0549 33.0909 40.856 32.4848 40.8181 31.7841H42.5795C42.6136 32.2045 42.7499 32.5549 42.9886 32.8352C43.231 33.1117 43.5397 33.3182 43.9147 33.4545C44.2935 33.5871 44.7083 33.6534 45.159 33.6534C45.6552 33.6534 46.0965 33.5758 46.4829 33.4205C46.873 33.2614 47.1799 33.0417 47.4033 32.7614C47.6268 32.4773 47.7386 32.1458 47.7386 31.767C47.7386 31.4223 47.6401 31.1402 47.4431 30.9205C47.2499 30.7008 46.9867 30.5189 46.6533 30.375C46.3238 30.2311 45.9507 30.1042 45.534 29.9943L44.159 29.6193C43.2272 29.3655 42.4886 28.9924 41.9431 28.5C41.4014 28.0076 41.1306 27.3561 41.1306 26.5455C41.1306 25.875 41.3124 25.2898 41.6761 24.7898C42.0397 24.2898 42.5321 23.9015 43.1533 23.625C43.7746 23.3447 44.4753 23.2045 45.2556 23.2045C46.0435 23.2045 46.7386 23.3428 47.3408 23.6193C47.9469 23.8958 48.4242 24.2765 48.7727 24.7614C49.1211 25.2424 49.303 25.7955 49.3181 26.4205H47.6249Z" fill="black"/>
<rect y="2" width="17" height="17" rx="5" fill="#0850AC"/>
<rect x="17" y="19" width="17" height="17" rx="5" fill="#0850AC"/>
</g>
<defs>
<clipPath id="clip0_2002_179">
<rect width="141" height="38" fill="white"/>
</clipPath>
</defs>
</svg>
