<svg width="38" height="38" viewBox="0 0 38 38" fill="none" xmlns="http://www.w3.org/2000/svg">
<circle cx="19" cy="19" r="19" fill="#0850AC"/>
<path fill-rule="evenodd" clip-rule="evenodd" d="M22.2651 13.2622C20.0138 11.0108 16.3635 11.0108 14.1121 13.2622C11.8607 15.5136 11.8607 19.1638 14.1121 21.4152C16.3635 23.6666 20.0138 23.6666 22.2651 21.4152C24.5165 19.1638 24.5165 15.5136 22.2651 13.2622ZM13.1891 12.3391C15.9502 9.57795 20.427 9.57795 23.1882 12.3391C25.7938 14.9447 25.9406 19.078 23.6287 21.8557L26.5917 24.8187C26.8466 25.0736 26.8466 25.4869 26.5917 25.7418C26.3368 25.9967 25.9235 25.9967 25.6687 25.7418L22.7056 22.7787C19.9279 25.0907 15.7946 24.9439 13.1891 22.3382C10.4279 19.5771 10.4279 15.1003 13.1891 12.3391Z" fill="white"/>
</svg>
