<svg width="31" height="31" viewBox="0 0 31 31" fill="none" xmlns="http://www.w3.org/2000/svg">
<path d="M10.8423 13.8125C9.4891 14.3319 8.09866 14.8657 6.82723 15.4814C6.16326 15.9088 7.04589 16.2112 7.87375 16.4948C8.00527 16.5398 8.1354 16.5844 8.25773 16.6289C8.35959 16.6564 8.46319 16.6855 8.56816 16.7149C9.48883 16.9728 10.5154 17.2603 11.4093 16.8277C12.8775 16.0862 14.2632 15.2288 15.6478 14.3721C16.1014 14.0915 16.5549 13.8109 17.0112 13.5344C17.0325 13.5224 17.0567 13.5087 17.083 13.4936C17.4718 13.2721 18.3459 12.7739 18.0226 13.4604C17.2579 14.1956 16.4389 14.8464 15.6154 15.5007C15.0605 15.9417 14.5035 16.3843 13.9598 16.8554C13.4862 17.1937 12.9944 17.8741 13.5247 18.3478C14.7461 19.0995 15.9865 19.8331 17.2263 20.5661C17.6297 20.8047 18.0331 21.0432 18.4357 21.2823C19.118 21.7613 20.1843 21.3739 20.3343 20.6254C20.401 20.2812 20.468 19.9369 20.535 19.5927C20.9051 17.69 21.2754 15.7866 21.6025 13.8778C21.6469 13.5784 21.6973 13.2789 21.7478 12.9794C21.87 12.2533 21.9923 11.5264 22.0305 10.7965C21.932 10.068 20.9274 10.2282 20.3683 10.392C17.4948 11.3533 14.6499 12.386 11.8163 13.4368C11.4953 13.5618 11.1699 13.6867 10.8423 13.8125Z" fill="#0850AC"/>
<path fill-rule="evenodd" clip-rule="evenodd" d="M14.6858 0.361817C11.9405 0.361801 9.77622 0.361788 8.05643 0.548117C6.29692 0.738748 4.85221 1.13659 3.61399 2.03621C2.86969 2.57697 2.21515 3.23151 1.67439 3.9758C0.774774 5.21402 0.376931 6.65873 0.1863 8.41824C-2.78804e-05 10.138 -1.54337e-05 12.3023 2.87995e-07 15.0476V16.0991C-1.54337e-05 18.8444 -2.78804e-05 21.0087 0.1863 22.7285C0.376931 24.488 0.774774 25.9327 1.67439 27.1709C2.21515 27.9152 2.86969 28.5697 3.61399 29.1105C4.85221 30.0101 6.29692 30.408 8.05643 30.5986C9.77621 30.7849 11.9405 30.7849 14.6857 30.7849H15.7373C18.4826 30.7849 20.6469 30.7849 22.3667 30.5986C24.1262 30.408 25.5709 30.0101 26.8091 29.1105C27.5534 28.5697 28.2079 27.9152 28.7487 27.1709C29.6483 25.9327 30.0461 24.488 30.2368 22.7285C30.4231 21.0087 30.4231 18.8444 30.4231 16.0992V15.0475C30.4231 12.3023 30.4231 10.138 30.2368 8.41824C30.0461 6.65873 29.6483 5.21402 28.7487 3.9758C28.2079 3.23151 27.5534 2.57697 26.8091 2.03621C25.5709 1.13659 24.1262 0.738748 22.3666 0.548117C20.6469 0.361788 18.4826 0.361801 15.7373 0.361817H14.6858ZM5.11151 4.09738C5.84304 3.5659 6.78811 3.24818 8.33085 3.08104C9.89743 2.91131 11.9237 2.90956 14.7619 2.90956H15.6611C18.4993 2.90956 20.5256 2.91131 22.0922 3.08104C23.635 3.24818 24.58 3.5659 25.3116 4.09738C25.8396 4.481 26.3039 4.94533 26.6875 5.47333C27.219 6.20486 27.5367 7.14993 27.7039 8.69267C27.8736 10.2592 27.8753 12.2856 27.8753 15.1238V16.023C27.8753 18.8611 27.8736 20.8875 27.7039 22.454C27.5367 23.9968 27.219 24.9419 26.6875 25.6734C26.3039 26.2014 25.8396 26.6657 25.3116 27.0493C24.58 27.5808 23.635 27.8985 22.0922 28.0657C20.5256 28.2354 18.4993 28.2371 15.6611 28.2371H14.7619C11.9237 28.2371 9.89743 28.2354 8.33085 28.0657C6.78811 27.8985 5.84304 27.5808 5.11151 27.0493C4.58351 26.6657 4.11918 26.2014 3.73556 25.6734C3.20408 24.9419 2.88637 23.9968 2.71922 22.454C2.54949 20.8875 2.54775 18.8611 2.54775 16.023V15.1238C2.54775 12.2856 2.54949 10.2592 2.71922 8.69267C2.88637 7.14993 3.20408 6.20486 3.73556 5.47333C4.11918 4.94533 4.58351 4.481 5.11151 4.09738Z" fill="#0850AC"/>
</svg>
