<svg width="15" height="16" viewBox="0 0 15 16" fill="none" xmlns="http://www.w3.org/2000/svg">
<path d="M13.75 8.625C13.5842 8.625 13.4253 8.69085 13.3081 8.80806C13.1908 8.92527 13.125 9.08424 13.125 9.25V11.8831C13.1245 12.3449 12.9408 12.7877 12.6143 13.1143C12.2877 13.4408 11.8449 13.6245 11.3831 13.625H3.61688C3.15505 13.6245 2.71229 13.4408 2.38573 13.1143C2.05917 12.7877 1.8755 12.3449 1.875 11.8831V9.25C1.875 9.08424 1.80915 8.92527 1.69194 8.80806C1.57473 8.69085 1.41576 8.625 1.25 8.625C1.08424 8.625 0.925268 8.69085 0.808058 8.80806C0.690848 8.92527 0.625 9.08424 0.625 9.25V11.8831C0.625827 12.6764 0.941307 13.4369 1.50221 13.9978C2.06312 14.5587 2.82363 14.8742 3.61688 14.875H11.3831C12.1764 14.8742 12.9369 14.5587 13.4978 13.9978C14.0587 13.4369 14.3742 12.6764 14.375 11.8831V9.25C14.375 9.08424 14.3092 8.92527 14.1919 8.80806C14.0747 8.69085 13.9158 8.625 13.75 8.625Z" fill="white"/>
<path d="M4.19176 5.94188L6.87489 3.25875V11.125C6.87489 11.2908 6.94074 11.4497 7.05795 11.5669C7.17516 11.6842 7.33413 11.75 7.49989 11.75C7.66565 11.75 7.82462 11.6842 7.94183 11.5669C8.05904 11.4497 8.12489 11.2908 8.12489 11.125V3.25875L10.808 5.94188C10.9259 6.05573 11.0838 6.11872 11.2476 6.1173C11.4115 6.11588 11.5683 6.05015 11.6841 5.93427C11.8 5.81839 11.8658 5.66163 11.8672 5.49775C11.8686 5.33388 11.8056 5.17601 11.6918 5.05813L7.94176 1.30813C7.82456 1.19096 7.66562 1.12514 7.49989 1.12514C7.33416 1.12514 7.17522 1.19096 7.05801 1.30813L3.30801 5.05813C3.19416 5.17601 3.13117 5.33388 3.13259 5.49775C3.13402 5.66163 3.19975 5.81839 3.31563 5.93427C3.43151 6.05015 3.58826 6.11588 3.75214 6.1173C3.91601 6.11872 4.07389 6.05573 4.19176 5.94188Z" fill="white"/>
</svg>
