<svg width="31" height="31" viewBox="0 0 31 31" fill="none" xmlns="http://www.w3.org/2000/svg">
<path d="M12.5663 18.7192C12.5663 19.695 13.6227 20.3049 14.4677 19.817L19.6569 16.821C20.502 16.3331 20.502 15.1133 19.6569 14.6254L14.4677 11.6295C13.6227 11.1416 12.5663 11.7514 12.5663 12.7273V18.7192Z" fill="#0850AC"/>
<path fill-rule="evenodd" clip-rule="evenodd" d="M15.2627 0.361817C12.5174 0.361801 10.3531 0.361788 8.63333 0.548117C6.87382 0.738748 5.42911 1.13659 4.19089 2.03621C3.4466 2.57697 2.79206 3.23151 2.2513 3.9758C1.35168 5.21403 0.953836 6.65873 0.763204 8.41824C0.576876 10.138 0.576889 12.3023 0.576905 15.0476V16.0991C0.576889 18.8444 0.576876 21.0087 0.763204 22.7285C0.953836 24.488 1.35168 25.9327 2.2513 27.1709C2.79206 27.9152 3.4466 28.5697 4.19089 29.1105C5.42911 30.0101 6.87382 30.408 8.63333 30.5986C10.3531 30.7849 12.5174 30.7849 15.2626 30.7849H16.3143C19.0595 30.7849 21.2238 30.7849 22.9436 30.5986C24.7031 30.408 26.1478 30.0101 27.386 29.1105C28.1303 28.5697 28.7848 27.9152 29.3256 27.1709C30.2252 25.9327 30.6231 24.488 30.8137 22.7285C31 21.0087 31 18.8444 31 16.0992V15.0475C31 12.3023 31 10.138 30.8137 8.41824C30.6231 6.65873 30.2252 5.21403 29.3256 3.9758C28.7848 3.23151 28.1303 2.57697 27.386 2.03621C26.1478 1.13659 24.7031 0.738748 22.9436 0.548117C21.2238 0.361788 19.0595 0.361801 16.3142 0.361817H15.2627ZM5.68842 4.09738C6.41995 3.5659 7.36502 3.24818 8.90776 3.08104C10.4743 2.91131 12.5007 2.90956 15.3388 2.90956H16.238C19.0762 2.90956 21.1025 2.91131 22.6691 3.08104C24.2119 3.24818 25.1569 3.5659 25.8885 4.09738C26.4165 4.481 26.8808 4.94533 27.2644 5.47333C27.7959 6.20486 28.1136 7.14993 28.2808 8.69267C28.4505 10.2592 28.4522 12.2856 28.4522 15.1238V16.023C28.4522 18.8611 28.4505 20.8875 28.2808 22.454C28.1136 23.9968 27.7959 24.9419 27.2644 25.6734C26.8808 26.2014 26.4165 26.6657 25.8885 27.0493C25.1569 27.5808 24.2119 27.8985 22.6691 28.0657C21.1025 28.2354 19.0762 28.2371 16.238 28.2371H15.3388C12.5007 28.2371 10.4743 28.2354 8.90776 28.0657C7.36502 27.8985 6.41995 27.5808 5.68842 27.0493C5.16042 26.6657 4.69608 26.2014 4.31247 25.6734C3.78098 24.9419 3.46327 23.9968 3.29613 22.454C3.1264 20.8875 3.12465 18.8611 3.12465 16.023V15.1238C3.12465 12.2856 3.1264 10.2592 3.29613 8.69267C3.46327 7.14993 3.78098 6.20486 4.31247 5.47333C4.69608 4.94533 5.16042 4.481 5.68842 4.09738Z" fill="#0850AC"/>
</svg>
