<svg width="57" height="57" viewBox="0 0 57 57" fill="none" xmlns="http://www.w3.org/2000/svg">
<circle cx="28.5" cy="28.5" r="28.5" fill="#0850AC"/>
<path fill-rule="evenodd" clip-rule="evenodd" d="M33.9042 21.9123C30.9311 18.9392 26.1107 18.9392 23.1375 21.9123C20.1644 24.8854 20.1644 29.7059 23.1375 32.6789C26.1107 35.6521 30.9311 35.6521 33.9042 32.6789C36.8773 29.7059 36.8773 24.8854 33.9042 21.9123ZM21.9186 20.6933C25.5649 17.047 31.4768 17.047 35.1231 20.6933C38.564 24.1342 38.7579 29.5924 35.7048 33.2606L39.6177 37.1736C39.9543 37.5101 39.9543 38.0559 39.6177 38.3925C39.2812 38.7291 38.7354 38.7291 38.3988 38.3925L34.4859 34.4796C30.8177 37.5326 25.3594 37.3388 21.9186 33.8979C18.2723 30.2515 18.2723 24.3397 21.9186 20.6933Z" fill="white"/>
</svg>
