<svg width="21" height="20" viewBox="0 0 21 20" fill="none" xmlns="http://www.w3.org/2000/svg">
<rect x="0.311523" width="20" height="20" rx="10" fill="#36AEDD"/>
<path d="M9.26953 13.125H11.3529V15.2083H9.26953V13.125Z" fill="white"/>
<path fill-rule="evenodd" clip-rule="evenodd" d="M10.3118 6.66667C9.31602 6.66667 8.64518 7.57167 8.64518 8.33333H6.97852C6.97852 6.83167 8.22518 5 10.3118 5C12.3918 5 13.6452 6.785 13.6452 8.33333C13.6452 9.64833 12.7218 10.315 12.1502 10.7275L12.0535 10.7975C11.4243 11.2575 11.1452 11.5192 11.1452 12.0833H9.47852C9.47852 10.615 10.446 9.90833 11.0677 9.45417L11.0702 9.4525C11.7635 8.945 11.9785 8.7525 11.9785 8.33333C11.9785 7.54167 11.3152 6.66667 10.3118 6.66667Z" fill="white"/>
</svg>
