<svg width="24" height="24" viewBox="0 0 24 24" fill="none" xmlns="http://www.w3.org/2000/svg">
<path fill-rule="evenodd" clip-rule="evenodd" d="M3.04513 11.6752C3.04513 16.5456 6.57633 19.864 10.5427 20.5504C10.6506 20.5691 10.7538 20.6089 10.8463 20.6674C10.9388 20.726 11.0189 20.8022 11.082 20.8917C11.1451 20.9812 11.1899 21.0823 11.2139 21.1891C11.2379 21.296 11.2406 21.4065 11.2219 21.5144C11.2032 21.6223 11.1635 21.7254 11.1049 21.818C11.0463 21.9105 10.9701 21.9906 10.8806 22.0537C10.7911 22.1167 10.69 22.1615 10.5832 22.1856C10.4763 22.2096 10.3658 22.2123 10.2579 22.1936C5.60033 21.3872 1.37793 17.4608 1.37793 11.6752C1.37793 9.216 2.49633 7.2832 3.80193 5.8144C4.73793 4.7616 5.80833 3.9056 6.66913 3.2512H4.05153C3.83936 3.2512 3.63587 3.16691 3.48584 3.01688C3.33581 2.86686 3.25153 2.66337 3.25153 2.4512C3.25153 2.23903 3.33581 2.03554 3.48584 1.88551C3.63587 1.73548 3.83936 1.6512 4.05153 1.6512H8.85153C9.0637 1.6512 9.26719 1.73548 9.41722 1.88551C9.56724 2.03554 9.65153 2.23903 9.65153 2.4512V7.2512C9.65153 7.46337 9.56724 7.66686 9.41722 7.81688C9.26719 7.96691 9.0637 8.0512 8.85153 8.0512C8.63936 8.0512 8.43587 7.96691 8.28584 7.81688C8.13582 7.66686 8.05153 7.46337 8.05153 7.2512V4.2976L8.04993 4.3008C7.13473 4.9888 6.01793 5.832 5.04993 6.9216C3.90593 8.208 3.04513 9.7648 3.04513 11.6752ZM20.8179 12.3232C20.8179 7.504 17.3619 4.2064 13.4467 3.4704C13.3376 3.45188 13.2333 3.41182 13.1398 3.35255C13.0463 3.29328 12.9656 3.21599 12.9023 3.12519C12.839 3.03439 12.7944 2.93189 12.7712 2.82368C12.7479 2.71547 12.7465 2.60371 12.7669 2.49492C12.7873 2.38614 12.8291 2.2825 12.89 2.19006C12.9509 2.09763 13.0295 2.01824 13.1214 1.95653C13.2133 1.89482 13.3166 1.85203 13.4251 1.83065C13.5337 1.80927 13.6455 1.80973 13.7539 1.832C18.3523 2.696 22.4851 6.6 22.4851 12.3232C22.4851 14.7824 21.3667 16.7136 20.0611 18.184C19.1251 19.2368 18.0547 20.0928 17.1939 20.7472H19.8115C20.0237 20.7472 20.2272 20.8315 20.3772 20.9815C20.5272 21.1315 20.6115 21.335 20.6115 21.5472C20.6115 21.7594 20.5272 21.9629 20.3772 22.1129C20.2272 22.2629 20.0237 22.3472 19.8115 22.3472H15.0115C14.7994 22.3472 14.5959 22.2629 14.4458 22.1129C14.2958 21.9629 14.2115 21.7594 14.2115 21.5472V16.7472C14.2115 16.535 14.2958 16.3315 14.4458 16.1815C14.5959 16.0315 14.7994 15.9472 15.0115 15.9472C15.2237 15.9472 15.4272 16.0315 15.5772 16.1815C15.7272 16.3315 15.8115 16.535 15.8115 16.7472V19.6992H15.8147C16.7283 19.008 17.8467 18.1664 18.8131 17.0752C19.9571 15.7904 20.8179 14.2352 20.8179 12.3232Z" fill="black"/>
</svg>
