<svg width="14" height="14" viewBox="0 0 14 14" fill="none" xmlns="http://www.w3.org/2000/svg">
<g clip-path="url(#clip0_83_1063)">
<path d="M6.77425 0C3.97312 0 1.6936 2.37722 1.6936 5.29993C1.6936 9.45277 6.29667 13.7407 6.49256 13.9207C6.57328 13.995 6.67377 14.0318 6.77425 14.0318C6.87473 14.0318 6.97522 13.995 7.05594 13.9213C7.25183 13.7407 11.8549 9.45277 11.8549 5.29993C11.8549 2.37722 9.57538 0 6.77425 0ZM6.77425 8.18523C5.21788 8.18523 3.95167 6.87384 3.95167 5.26193C3.95167 3.65003 5.21788 2.33864 6.77425 2.33864C8.33062 2.33864 9.59683 3.65003 9.59683 5.26193C9.59683 6.87384 8.33062 8.18523 6.77425 8.18523Z" fill="#0850AC"/>
</g>
<defs>
<clipPath id="clip0_83_1063">
<rect width="13.5484" height="14" fill="white"/>
</clipPath>
</defs>
</svg>
