<svg width="20" height="20" viewBox="0 0 20 20" fill="none" xmlns="http://www.w3.org/2000/svg">
<g clip-path="url(#clip0_252_2075)">
<path d="M18.333 10.8335C18.112 10.8335 17.9 10.9213 17.7437 11.0776C17.5875 11.2339 17.4997 11.4458 17.4997 11.6668V15.1777C17.499 15.7934 17.2541 16.3838 16.8187 16.8192C16.3833 17.2546 15.7929 17.4995 15.1772 17.5002H4.82217C4.20641 17.4995 3.61606 17.2546 3.18065 16.8192C2.74524 16.3838 2.50034 15.7934 2.49967 15.1777V11.6668C2.49967 11.4458 2.41188 11.2339 2.2556 11.0776C2.09932 10.9213 1.88735 10.8335 1.66634 10.8335C1.44533 10.8335 1.23337 10.9213 1.07709 11.0776C0.920805 11.2339 0.833008 11.4458 0.833008 11.6668V15.1777C0.834111 16.2353 1.25475 17.2493 2.00263 17.9972C2.7505 18.7451 3.76452 19.1657 4.82217 19.1668H15.1772C16.2348 19.1657 17.2488 18.7451 17.9967 17.9972C18.7446 17.2493 19.1652 16.2353 19.1663 15.1777V11.6668C19.1663 11.4458 19.0785 11.2339 18.9223 11.0776C18.766 10.9213 18.554 10.8335 18.333 10.8335Z" fill="#0850AC"/>
<path d="M14.411 8.57768L10.8335 12.1552L10.8335 1.66684C10.8335 1.44583 10.7457 1.23387 10.5894 1.07759C10.4331 0.921308 10.2212 0.833511 10.0002 0.833511C9.77914 0.833511 9.56718 0.921308 9.41089 1.07759C9.25461 1.23387 9.16682 1.44583 9.16682 1.66684L9.16682 12.1552L5.58932 8.57768C5.43215 8.42588 5.22165 8.34188 5.00315 8.34378C4.78465 8.34568 4.57564 8.43332 4.42113 8.58783C4.26663 8.74234 4.17899 8.95135 4.17709 9.16984C4.17519 9.38834 4.25918 9.59884 4.41098 9.75601L9.41098 14.756C9.56726 14.9122 9.77918 15 10.0001 15C10.2211 15 10.433 14.9122 10.5893 14.756L15.5893 9.75601C15.7411 9.59884 15.8251 9.38834 15.8232 9.16984C15.8213 8.95135 15.7337 8.74234 15.5792 8.58783C15.4247 8.43332 15.2156 8.34568 14.9972 8.34378C14.7787 8.34188 14.5682 8.42588 14.411 8.57768Z" fill="#0850AC"/>
</g>
<defs>
<clipPath id="clip0_252_2075">
<rect width="20" height="20" fill="white"/>
</clipPath>
</defs>
</svg>
