<svg width="55" height="56" viewBox="0 0 55 56" fill="none" xmlns="http://www.w3.org/2000/svg">
<rect width="55" height="56" rx="27.5" fill="#F5F9FF"/>
<path d="M37.9775 20.6058L31.6051 14.2334C31.4564 14.0846 31.2533 14 31.0418 14H19.8897C18.572 14 17.5 15.072 17.5 16.3897V38.8C17.5 40.1177 18.572 41.1897 19.8897 41.1897H35.8212C37.1389 41.1897 38.2109 40.1177 38.2109 38.8V21.1692C38.2109 20.952 38.1198 20.748 37.9775 20.6058ZM31.8383 16.7197L35.4913 20.3726H32.6349C32.1957 20.3726 31.8383 20.0153 31.8383 19.576V16.7197ZM35.8212 39.5966H19.8897C19.4505 39.5966 19.0931 39.2393 19.0931 38.8V16.3897C19.0931 15.9505 19.4505 15.5931 19.8897 15.5931H30.2452V19.576C30.2452 20.8937 31.3172 21.9657 32.6349 21.9657H36.6178V38.8C36.6178 39.2393 36.2604 39.5966 35.8212 39.5966Z" fill="#0850AC"/>
<path d="M32.6348 25.2583H23.0759C22.6359 25.2583 22.2793 25.615 22.2793 26.0549C22.2793 26.4948 22.6359 26.8514 23.0759 26.8514H32.6348C33.0747 26.8514 33.4313 26.4948 33.4313 26.0549C33.4313 25.615 33.0747 25.2583 32.6348 25.2583Z" fill="#0850AC"/>
<path d="M32.6348 28.4446H23.0759C22.6359 28.4446 22.2793 28.8012 22.2793 29.2412C22.2793 29.6811 22.6359 30.0377 23.0759 30.0377H32.6348C33.0747 30.0377 33.4313 29.6811 33.4313 29.2412C33.4313 28.8012 33.0747 28.4446 32.6348 28.4446Z" fill="#0850AC"/>
<path d="M32.6348 31.6309H23.0759C22.6359 31.6309 22.2793 31.9875 22.2793 32.4274C22.2793 32.8674 22.6359 33.224 23.0759 33.224H32.6348C33.0747 33.224 33.4313 32.8674 33.4313 32.4274C33.4313 31.9875 33.0747 31.6309 32.6348 31.6309Z" fill="#0850AC"/>
<path d="M29.4485 34.8171H23.0759C22.6359 34.8171 22.2793 35.1738 22.2793 35.6137C22.2793 36.0536 22.6359 36.4103 23.0759 36.4103H29.4485C29.8884 36.4103 30.245 36.0536 30.245 35.6137C30.245 35.1738 29.8884 34.8171 29.4485 34.8171Z" fill="#0850AC"/>
</svg>
