<svg width="55" height="56" viewBox="0 0 55 56" fill="none" xmlns="http://www.w3.org/2000/svg">
<rect width="55" height="56" rx="27.5" fill="#F5F9FF"/>
<path d="M40.4 21.7746C40.2732 21.4693 40.0306 21.2267 39.7252 21.1C39.575 21.0359 39.4137 21.002 39.2504 21H33.0022C32.6707 21 32.3529 21.1316 32.1185 21.3659C31.8842 21.6002 31.7525 21.918 31.7525 22.2494C31.7525 22.5808 31.8842 22.8985 32.1185 23.1329C32.3529 23.3672 32.6707 23.4988 33.0022 23.4988H36.2387L29.2533 30.4829L25.142 26.3599C25.0258 26.2428 24.8876 26.1499 24.7353 26.0864C24.583 26.023 24.4197 25.9903 24.2547 25.9903C24.0897 25.9903 23.9264 26.023 23.7741 26.0864C23.6218 26.1499 23.4836 26.2428 23.3675 26.3599L15.8696 33.8563C15.7525 33.9724 15.6595 34.1106 15.5961 34.2629C15.5327 34.4151 15.5 34.5784 15.5 34.7434C15.5 34.9083 15.5327 35.0716 15.5961 35.2238C15.6595 35.3761 15.7525 35.5143 15.8696 35.6304C15.9858 35.7475 16.124 35.8405 16.2763 35.9039C16.4286 35.9673 16.5919 36 16.7569 36C16.9219 36 17.0852 35.9673 17.2375 35.9039C17.3897 35.8405 17.528 35.7475 17.6441 35.6304L24.2547 29.0086L28.366 33.1316C28.4822 33.2487 28.6204 33.3417 28.7727 33.4051C28.925 33.4686 29.0883 33.5012 29.2533 33.5012C29.4182 33.5012 29.5816 33.4686 29.7338 33.4051C29.8861 33.3417 30.0243 33.2487 30.1405 33.1316L38.0007 25.2604V28.4964C38.0007 28.8277 38.1324 29.1455 38.3667 29.3798C38.6011 29.6141 38.9189 29.7458 39.2504 29.7458C39.5818 29.7458 39.8996 29.6141 40.134 29.3798C40.3683 29.1455 40.5 28.8277 40.5 28.4964V22.2494C40.498 22.0861 40.4641 21.9248 40.4 21.7746Z" fill="#0850AC"/>
</svg>
