<svg width="55" height="56" viewBox="0 0 55 56" fill="none" xmlns="http://www.w3.org/2000/svg">
<rect width="55" height="56" rx="27.5" fill="#F5F9FF"/>
<path d="M25.3546 34.6999C27.321 34.6999 29.2312 34.0438 30.7826 32.8355L36.6355 38.6884C37.0727 39.1106 37.7694 39.0985 38.1917 38.6613C38.6036 38.2348 38.6036 37.5586 38.1917 37.1322L32.3388 31.2793C35.3372 27.4195 34.639 21.8598 30.7792 18.8614C26.9195 15.863 21.3598 16.5612 18.3614 20.421C15.363 24.2808 16.0612 29.8405 19.921 32.8389C21.4749 34.046 23.3868 34.7009 25.3546 34.6999ZM20.6518 21.1485C23.2491 18.5511 27.4601 18.5511 30.0575 21.1484C32.6548 23.7456 32.6548 27.9567 30.0576 30.554C27.4603 33.1513 23.2493 33.1514 20.6519 30.5541C20.6519 30.554 20.6519 30.554 20.6518 30.554C18.0546 27.9756 18.0393 23.78 20.6176 21.1827C20.629 21.1712 20.6404 21.1599 20.6518 21.1485Z" fill="#0850AC"/>
</svg>
