<svg width="55" height="56" viewBox="0 0 55 56" fill="none" xmlns="http://www.w3.org/2000/svg">
<rect width="55" height="56" rx="27.5" fill="#F5F9FF"/>
<path d="M27.5 26.875C25.9492 26.875 24.6875 25.6133 24.6875 24.0625C24.6875 22.5117 25.9492 21.25 27.5 21.25C29.0508 21.25 30.3125 22.5117 30.3125 24.0625C30.3125 24.6838 30.8161 25.1875 31.4375 25.1875C32.0589 25.1875 32.5625 24.6838 32.5625 24.0625C32.5625 21.6577 30.8765 19.6407 28.625 19.1275V17.875C28.625 17.2537 28.1214 16.75 27.5 16.75C26.8786 16.75 26.375 17.2537 26.375 17.875V19.1275C24.1235 19.6407 22.4375 21.6577 22.4375 24.0625C22.4375 26.854 24.7085 29.125 27.5 29.125C29.0508 29.125 30.3125 30.3867 30.3125 31.9375C30.3125 33.4883 29.0508 34.75 27.5 34.75C25.9492 34.75 24.6875 33.4883 24.6875 31.9375C24.6875 31.3162 24.1839 30.8125 23.5625 30.8125C22.9411 30.8125 22.4375 31.3162 22.4375 31.9375C22.4375 34.3423 24.1235 36.3593 26.375 36.8725V38.125C26.375 38.7463 26.8786 39.25 27.5 39.25C28.1214 39.25 28.625 38.7463 28.625 38.125V36.8725C30.8765 36.3593 32.5625 34.3423 32.5625 31.9375C32.5625 29.146 30.2915 26.875 27.5 26.875Z" fill="#0850AC"/>
</svg>
