<svg width="20" height="20" viewBox="0 0 20 20" fill="none" xmlns="http://www.w3.org/2000/svg">
<path d="M8.19667 16.1484L8.02828 15.8616C6.76536 13.7099 3.40575 9.13866 3.37198 9.09274L3.27344 8.95885L4.53705 7.71027L8.15382 10.2358C10.4206 7.3062 12.5323 5.29001 13.9137 4.10839C15.4398 2.80304 16.4061 2.21889 16.4462 2.19466L16.4919 2.16724H18.7189L18.3417 2.50316C13.5794 6.74489 8.4129 15.7688 8.36125 15.8595L8.19667 16.1484Z" fill="#49E256"/>
<path d="M8.19752 4.59842C8.36648 4.59842 8.50345 4.46145 8.50345 4.2925C8.50345 4.12354 8.36648 3.98657 8.19752 3.98657C8.02857 3.98657 7.8916 4.12354 7.8916 4.2925C7.8916 4.46145 8.02857 4.59842 8.19752 4.59842Z" fill="#9AA0A4"/>
<path d="M8.19752 17.8328C8.36648 17.8328 8.50345 17.6958 8.50345 17.5269C8.50345 17.3579 8.36648 17.2209 8.19752 17.2209C8.02857 17.2209 7.8916 17.3579 7.8916 17.5269C7.8916 17.6958 8.02857 17.8328 8.19752 17.8328Z" fill="#9AA0A4"/>
<path d="M1.58717 11.2156C1.75613 11.2156 1.8931 11.0786 1.8931 10.9097C1.8931 10.7407 1.75613 10.6038 1.58717 10.6038C1.41822 10.6038 1.28125 10.7407 1.28125 10.9097C1.28125 11.0786 1.41822 11.2156 1.58717 11.2156Z" fill="#9AA0A4"/>
<path d="M14.8069 11.2156C14.9759 11.2156 15.1128 11.0786 15.1128 10.9097C15.1128 10.7407 14.9759 10.6038 14.8069 10.6038C14.6379 10.6038 14.501 10.7407 14.501 10.9097C14.501 11.0786 14.6379 11.2156 14.8069 11.2156Z" fill="#9AA0A4"/>
<path d="M3.51784 15.8946C3.68679 15.8946 3.82376 15.7576 3.82376 15.5886C3.82376 15.4197 3.68679 15.2827 3.51784 15.2827C3.34888 15.2827 3.21191 15.4197 3.21191 15.5886C3.21191 15.7576 3.34888 15.8946 3.51784 15.8946Z" fill="#9AA0A4"/>
<path d="M3.5237 6.54153C3.69265 6.54153 3.82962 6.40457 3.82962 6.23561C3.82962 6.06665 3.69265 5.92969 3.5237 5.92969C3.35474 5.92969 3.21777 6.06665 3.21777 6.23561C3.21777 6.40457 3.35474 6.54153 3.5237 6.54153Z" fill="#9AA0A4"/>
<path d="M12.8714 15.8894C13.0403 15.8894 13.1773 15.7525 13.1773 15.5835C13.1773 15.4146 13.0403 15.2776 12.8714 15.2776C12.7024 15.2776 12.5654 15.4146 12.5654 15.5835C12.5654 15.7525 12.7024 15.8894 12.8714 15.8894Z" fill="#9AA0A4"/>
<path d="M2.46608 7.90701C2.63504 7.90701 2.772 7.77005 2.772 7.60109C2.772 7.43213 2.63504 7.29517 2.46608 7.29517C2.29712 7.29517 2.16016 7.43213 2.16016 7.60109C2.16016 7.77005 2.29712 7.90701 2.46608 7.90701Z" fill="#9AA0A4"/>
<path d="M13.928 14.5242C14.097 14.5242 14.2339 14.3872 14.2339 14.2183C14.2339 14.0493 14.097 13.9124 13.928 13.9124C13.759 13.9124 13.6221 14.0493 13.6221 14.2183C13.6221 14.3872 13.759 14.5242 13.928 14.5242Z" fill="#9AA0A4"/>
<path d="M4.89186 16.94C5.06082 16.94 5.19778 16.803 5.19778 16.634C5.19778 16.4651 5.06082 16.3281 4.89186 16.3281C4.7229 16.3281 4.58594 16.4651 4.58594 16.634C4.58594 16.803 4.7229 16.94 4.89186 16.94Z" fill="#9AA0A4"/>
<path d="M6.48463 4.82376C6.65359 4.82376 6.79056 4.68679 6.79056 4.51784C6.79056 4.34888 6.65359 4.21191 6.48463 4.21191C6.31568 4.21191 6.17871 4.34888 6.17871 4.51784C6.17871 4.68679 6.31568 4.82376 6.48463 4.82376Z" fill="#9AA0A4"/>
<path d="M9.90944 17.6072C10.0784 17.6072 10.2154 17.4702 10.2154 17.3013C10.2154 17.1323 10.0784 16.9954 9.90944 16.9954C9.74048 16.9954 9.60352 17.1323 9.60352 17.3013C9.60352 17.4702 9.74048 17.6072 9.90944 17.6072Z" fill="#9AA0A4"/>
<path d="M1.81276 12.9263C1.98172 12.9263 2.11868 12.7893 2.11868 12.6204C2.11868 12.4514 1.98172 12.3145 1.81276 12.3145C1.6438 12.3145 1.50684 12.4514 1.50684 12.6204C1.50684 12.7893 1.6438 12.9263 1.81276 12.9263Z" fill="#9AA0A4"/>
<path d="M14.5823 9.50467C14.7512 9.50467 14.8882 9.3677 14.8882 9.19875C14.8882 9.02979 14.7512 8.89282 14.5823 8.89282C14.4133 8.89282 14.2764 9.02979 14.2764 9.19875C14.2764 9.3677 14.4133 9.50467 14.5823 9.50467Z" fill="#9AA0A4"/>
<path d="M2.46608 14.5242C2.63504 14.5242 2.772 14.3872 2.772 14.2183C2.772 14.0493 2.63504 13.9124 2.46608 13.9124C2.29712 13.9124 2.16016 14.0493 2.16016 14.2183C2.16016 14.3872 2.29712 14.5242 2.46608 14.5242Z" fill="#9AA0A4"/>
<path d="M11.5022 16.94C11.6712 16.94 11.8081 16.803 11.8081 16.634C11.8081 16.4651 11.6712 16.3281 11.5022 16.3281C11.3333 16.3281 11.1963 16.4651 11.1963 16.634C11.1963 16.803 11.3333 16.94 11.5022 16.94Z" fill="#9AA0A4"/>
<path d="M4.89186 5.49124C5.06082 5.49124 5.19778 5.35427 5.19778 5.18532C5.19778 5.01636 5.06082 4.87939 4.89186 4.87939C4.7229 4.87939 4.58594 5.01636 4.58594 5.18532C4.58594 5.35427 4.7229 5.49124 4.89186 5.49124Z" fill="#9AA0A4"/>
<path d="M9.90944 4.82376C10.0784 4.82376 10.2154 4.68679 10.2154 4.51784C10.2154 4.34888 10.0784 4.21191 9.90944 4.21191C9.74048 4.21191 9.60352 4.34888 9.60352 4.51784C9.60352 4.68679 9.74048 4.82376 9.90944 4.82376Z" fill="#9AA0A4"/>
<path d="M6.48463 17.6072C6.65359 17.6072 6.79056 17.4702 6.79056 17.3013C6.79056 17.1323 6.65359 16.9954 6.48463 16.9954C6.31568 16.9954 6.17871 17.1323 6.17871 17.3013C6.17871 17.4702 6.31568 17.6072 6.48463 17.6072Z" fill="#9AA0A4"/>
<path d="M14.5823 12.9263C14.7512 12.9263 14.8882 12.7893 14.8882 12.6204C14.8882 12.4514 14.7512 12.3145 14.5823 12.3145C14.4133 12.3145 14.2764 12.4514 14.2764 12.6204C14.2764 12.7893 14.4133 12.9263 14.5823 12.9263Z" fill="#9AA0A4"/>
<path d="M1.81276 9.50467C1.98172 9.50467 2.11868 9.3677 2.11868 9.19875C2.11868 9.02979 1.98172 8.89282 1.81276 8.89282C1.6438 8.89282 1.50684 9.02979 1.50684 9.19875C1.50684 9.3677 1.6438 9.50467 1.81276 9.50467Z" fill="#9AA0A4"/>
</svg>
