<svg width="25" height="25" viewBox="0 0 25 25" fill="none" xmlns="http://www.w3.org/2000/svg">
<g clip-path="url(#clip0_269_2186)">
<path d="M12.5001 5.68184C14.0664 5.68184 15.341 4.40732 15.341 2.84095C15.341 1.27457 14.0664 0 12.5001 0C10.9337 0 9.65918 1.27452 9.65918 2.84089C9.65918 4.40727 10.9336 5.68184 12.5001 5.68184ZM12.5001 1.13635C13.44 1.13635 14.2046 1.90094 14.2046 2.84089C14.2046 3.78084 13.44 4.54544 12.5001 4.54544C11.5601 4.54544 10.7955 3.78084 10.7955 2.84089C10.7955 1.90094 11.5601 1.13635 12.5001 1.13635Z" fill="#0850AC"/>
<path d="M8.60384 11.3636H16.3964C17.0678 11.3636 17.6138 10.7743 17.6138 10.0497V9.68573C17.6138 8.73635 17.1438 7.86911 16.3864 7.42241C15.4792 6.8875 14.0687 6.25 12.5001 6.25C10.9315 6.25 9.52105 6.88755 8.61385 7.42241C7.85645 7.86905 7.38647 8.73635 7.38647 9.68573V10.0497C7.38647 10.7744 7.93246 11.3636 8.60384 11.3636ZM8.52282 9.68573C8.52282 9.14475 8.78527 8.64089 9.1909 8.40119C9.97605 7.93841 11.1879 7.38635 12.5001 7.38635C13.8123 7.38635 15.0242 7.93846 15.8093 8.40119C16.215 8.64089 16.4774 9.14469 16.4774 9.68573V10.0497C16.4774 10.1679 16.4103 10.2272 16.3964 10.2272H8.60384C8.58999 10.2272 8.52282 10.1678 8.52282 10.0497V9.68573Z" fill="#0850AC"/>
<path d="M5.1136 19.3181C6.67997 19.3181 7.95449 18.0436 7.95449 16.4772C7.95449 14.9108 6.67997 13.6362 5.1136 13.6362C3.54723 13.6362 2.27271 14.9108 2.27271 16.4771C2.27271 18.0435 3.54723 19.3181 5.1136 19.3181ZM5.1136 14.7726C6.05355 14.7726 6.81815 15.5372 6.81815 16.4771C6.81815 17.4171 6.05355 18.1817 5.1136 18.1817C4.17365 18.1817 3.40905 17.4171 3.40905 16.4771C3.40905 15.5372 4.17365 14.7726 5.1136 14.7726Z" fill="#0850AC"/>
<path d="M8.9999 21.0586C8.09271 20.5237 6.68225 19.8862 5.11364 19.8862C3.54503 19.8862 2.13457 20.5238 1.22738 21.0586C0.469975 21.5053 0 22.3725 0 23.3219V23.6859C0 24.4105 0.545988 24.9998 1.21737 24.9998H9.00991C9.68129 24.9998 10.2273 24.4105 10.2273 23.6859V23.3219C10.2273 22.3725 9.7573 21.5053 8.9999 21.0586ZM9.09093 23.6859C9.09093 23.8041 9.02382 23.8635 9.00991 23.8635H1.21737C1.20352 23.8635 1.13635 23.8041 1.13635 23.6859V23.322C1.13635 22.781 1.39879 22.2771 1.80442 22.0374C2.58958 21.5746 3.80141 21.0226 5.11364 21.0226C6.42587 21.0226 7.6377 21.5747 8.42286 22.0374C8.82849 22.2771 9.09093 22.7809 9.09093 23.322V23.6859Z" fill="#0850AC"/>
<path d="M19.8863 19.3181C21.4527 19.3181 22.7272 18.0436 22.7272 16.4772C22.7272 14.9108 21.4527 13.6362 19.8863 13.6362C18.3199 13.6362 17.0454 14.9108 17.0454 16.4771C17.0454 18.0435 18.3199 19.3181 19.8863 19.3181ZM19.8863 14.7726C20.8263 14.7726 21.5909 15.5372 21.5909 16.4771C21.5909 17.4171 20.8263 18.1817 19.8863 18.1817C18.9464 18.1817 18.1818 17.4171 18.1818 16.4771C18.1818 15.5372 18.9464 14.7726 19.8863 14.7726Z" fill="#0850AC"/>
<path d="M23.7726 21.0586C22.8654 20.5237 21.455 19.8862 19.8863 19.8862C18.3177 19.8862 16.9073 20.5238 16.0001 21.0586C15.2427 21.5053 14.7727 22.3726 14.7727 23.322V23.6859C14.7727 24.4106 15.3187 24.9999 15.9901 24.9999H23.7826C24.454 24.9999 25 24.4106 25 23.6859V23.322C24.9999 22.3725 24.53 21.5053 23.7726 21.0586ZM23.8636 23.6859C23.8636 23.8041 23.7965 23.8635 23.7826 23.8635H15.99C15.9762 23.8635 15.909 23.8041 15.909 23.6859V23.322C15.909 22.781 16.1714 22.2771 16.5771 22.0374C17.3622 21.5746 18.5741 21.0226 19.8863 21.0226C21.1985 21.0226 22.4104 21.5747 23.1955 22.0374C23.6011 22.2771 23.8636 22.7809 23.8636 23.322V23.6859Z" fill="#0850AC"/>
<path d="M15.3403 19.3182C15.5073 19.3182 15.6721 19.2449 15.7848 19.1051C15.9807 18.8599 15.9407 18.5025 15.696 18.3061L13.0682 16.2039V13.0682C13.0682 12.7541 12.814 12.5 12.5 12.5C12.1859 12.5 11.9318 12.7541 11.9318 13.0681V16.2042L9.30395 18.3061C9.05924 18.5025 9.01929 18.8598 9.21515 19.1051C9.32781 19.2449 9.49257 19.3181 9.65961 19.3181C9.78388 19.3181 9.90933 19.2777 10.0142 19.1939L12.5 17.2052L14.9857 19.1939C15.0906 19.2777 15.216 19.3182 15.3403 19.3182Z" fill="#0850AC"/>
</g>
<defs>
<clipPath id="clip0_269_2186">
<rect width="25" height="25" fill="white"/>
</clipPath>
</defs>
</svg>
