<svg width="36" height="36" viewBox="0 0 36 36" fill="none" xmlns="http://www.w3.org/2000/svg">
<rect width="36" height="36" rx="18" fill="#DAE5F3"/>
<path fill-rule="evenodd" clip-rule="evenodd" d="M14.8431 19.0895C11.7952 19.0895 9.32447 21.5118 9.32447 24.4999V25.3656C9.32447 25.7241 9.02798 26.0148 8.66223 26.0148C8.29649 26.0148 8 25.7241 8 25.3656V24.4999C8 20.7947 11.0638 17.791 14.8431 17.791C18.6224 17.791 21.6862 20.7947 21.6862 24.4999V25.3656C21.6862 25.7241 21.3897 26.0148 21.0239 26.0148C20.6582 26.0148 20.3617 25.7241 20.3617 25.3656V24.4999C20.3617 21.5118 17.8909 19.0895 14.8431 19.0895Z" fill="#0850AC"/>
<path fill-rule="evenodd" clip-rule="evenodd" d="M23.6728 16.4923C21.6003 16.4923 19.9202 18.1395 19.9202 20.1714H18.5957C18.5957 17.4224 20.8688 15.1938 23.6728 15.1938C26.4769 15.1938 28.75 17.4224 28.75 20.1714V20.6043C28.75 20.9628 28.4535 21.2535 28.0877 21.2535C27.722 21.2535 27.4255 20.9628 27.4255 20.6043V20.1714C27.4255 18.1395 25.7454 16.4923 23.6728 16.4923Z" fill="#0850AC"/>
<path fill-rule="evenodd" clip-rule="evenodd" d="M14.8436 12.1642C13.2587 12.1642 11.9739 13.4238 11.9739 14.9776C11.9739 16.5314 13.2587 17.791 14.8436 17.791C16.4284 17.791 17.7132 16.5314 17.7132 14.9776C17.7132 13.4238 16.4284 12.1642 14.8436 12.1642ZM10.6494 14.9776C10.6494 12.7067 12.5272 10.8657 14.8436 10.8657C17.1599 10.8657 19.0377 12.7067 19.0377 14.9776C19.0377 17.2486 17.1599 19.0895 14.8436 19.0895C12.5272 19.0895 10.6494 17.2486 10.6494 14.9776Z" fill="#0850AC"/>
<path fill-rule="evenodd" clip-rule="evenodd" d="M23.6725 11.2985C22.5753 11.2985 21.6858 12.1705 21.6858 13.2462C21.6858 14.322 22.5753 15.194 23.6725 15.194C24.7697 15.194 25.6592 14.322 25.6592 13.2462C25.6592 12.1705 24.7697 11.2985 23.6725 11.2985ZM20.3613 13.2462C20.3613 11.4534 21.8438 10 23.6725 10C25.5012 10 26.9837 11.4534 26.9837 13.2462C26.9837 15.0391 25.5012 16.4925 23.6725 16.4925C21.8438 16.4925 20.3613 15.0391 20.3613 13.2462Z" fill="#0850AC"/>
</svg>
