<svg width="52" height="52" viewBox="0 0 52 52" fill="none" xmlns="http://www.w3.org/2000/svg">
<rect x="0.5" y="0.5" width="51" height="51" rx="4.5" fill="#0850AC" stroke="#0850AC"/>
<g clip-path="url(#clip0_670_5073)">
<path d="M35.0333 25.9282C33.9737 24.2735 32.7557 23.0012 31.481 22.1805C32.008 21.7684 32.3476 21.1275 32.3476 20.4085C32.3476 19.5734 31.8896 18.8437 31.2117 18.4555L34.085 12.8799L33.777 12.4892C31.4995 9.59907 29.4769 10.3826 27.8514 11.0122C27.0961 11.3048 26.3825 11.5813 25.6612 11.5193L25.595 11.5136L25.5289 11.5193C24.8052 11.5814 24.1215 11.3029 23.3972 11.008C21.8593 10.382 19.9454 9.60288 17.671 12.4892L17.3746 12.8652L20.0063 18.4394C19.313 18.8234 18.8424 19.562 18.8424 20.4085C18.8424 21.1275 19.1821 21.7684 19.7091 22.1805C18.4345 23.0012 17.2168 24.2733 16.1575 25.9277C14.3675 28.7233 13.2988 32.1585 13.2988 35.1169C13.2988 37.1977 13.8368 38.9561 14.8545 40.202C16.0411 41.6546 17.8 42.3912 20.0825 42.3912H31.1094C33.3916 42.3912 35.1504 41.6547 36.3369 40.2024C37.3546 38.9567 37.8925 37.1985 37.8925 35.118C37.8924 32.1595 36.8236 28.7241 35.0333 25.9282ZM22.8138 12.4409C23.6191 12.7687 24.5293 13.1394 25.5951 13.0658C26.647 13.1381 27.5826 12.7755 28.4103 12.4548C29.8585 11.8938 30.849 11.5103 32.2466 13.0702L29.6243 18.1586H21.5845L19.1883 13.083C20.5616 11.5243 21.4323 11.8785 22.8138 12.4409ZM21.0942 21.1114C20.7056 21.1114 20.3894 20.7961 20.3894 20.4085C20.3894 20.0275 20.7122 19.7056 21.0942 19.7056H30.0958C30.4778 19.7056 30.8006 20.0275 30.8006 20.4085C30.8006 20.7961 30.4844 21.1114 30.0958 21.1114H28.1692H23.0208H21.0942ZM35.1388 39.2236C34.2604 40.2988 32.9047 40.844 31.1094 40.844H20.0825C15.7544 40.844 14.8459 37.7296 14.8459 35.1169C14.8459 32.4819 15.8478 29.2805 17.4604 26.7619C19.1302 24.1541 21.1568 22.6585 23.0208 22.6585H28.1693C32.3031 22.6585 36.3454 29.7929 36.3454 35.118C36.3454 36.8377 35.9281 38.2574 35.1388 39.2236ZM24.1016 30.2191C24.1016 31.0095 24.4337 31.1848 25.7536 31.4621C26.9011 31.7034 28.6354 32.0678 28.6354 34.2208C28.6354 35.5067 27.6715 36.5908 26.3685 36.9039V38.3175H24.8215V36.9039C23.5184 36.5909 22.5546 35.5067 22.5546 34.2208H24.1016C24.1016 34.8976 24.7716 35.4482 25.595 35.4482C26.4184 35.4482 27.0884 34.8976 27.0884 34.2208C27.0884 33.4292 26.7561 33.2537 25.4354 32.9761C24.2882 32.735 22.5546 32.3706 22.5546 30.219C22.5546 28.9331 23.5185 27.849 24.8216 27.5359V26.1223H26.3686V27.5359C27.6716 27.849 28.6355 28.9331 28.6355 30.219H27.0884C27.0884 29.5423 26.4184 28.9917 25.595 28.9917C24.7716 28.9918 24.1016 29.5424 24.1016 30.2191Z" fill="white"/>
</g>
<defs>
<clipPath id="clip0_670_5073">
<rect width="33.0051" height="33.0051" fill="white" transform="translate(9.09277 9.90161)"/>
</clipPath>
</defs>
</svg>
