<svg width="100" height="100" viewBox="0 0 100 100" fill="none" xmlns="http://www.w3.org/2000/svg">
<rect width="100" height="100" rx="50" fill="#A4F1AD"/>
<path fill-rule="evenodd" clip-rule="evenodd" d="M56.0675 43.9334C54.8675 42.7335 53.3387 41.9163 51.6744 41.5853C50.01 41.2542 48.2849 41.4242 46.7171 42.0736C45.1493 42.723 43.8093 43.8227 42.8665 45.2337C41.9238 46.6446 41.4206 48.3035 41.4206 50.0004C41.4206 51.6974 41.9238 53.3563 42.8665 54.7672C43.8093 56.1782 45.1493 57.2779 46.7171 57.9273C48.2849 58.5767 50.01 58.7466 51.6744 58.4156C53.3387 58.0846 54.8675 57.2674 56.0675 56.0675C57.6763 54.4583 58.5802 52.276 58.5802 50.0004C58.5802 47.7249 57.6763 45.5426 56.0675 43.9334ZM50 39.5665C52.0637 39.5665 54.0812 40.1785 55.7971 41.3251C57.5131 42.4717 58.8504 44.1014 59.6402 46.0081C60.4299 47.9148 60.6365 50.0128 60.2338 52.0369C59.8311 54.061 58.8372 55.9202 57.3779 57.3795C55.9185 58.8387 54.0592 59.8324 52.0351 60.2349C50.0109 60.6374 47.9129 60.4307 46.0063 59.6408C44.0997 58.8509 42.4701 57.5133 41.3237 55.7973C40.1772 54.0812 39.5654 52.0637 39.5656 50C39.5659 47.2328 40.6653 44.579 42.6221 42.6224C44.5789 40.6657 47.2328 39.5665 50 39.5665ZM40.6044 31.1787C43.7088 30.3168 46.7112 29.1224 49.5594 27.6162C49.6931 27.5438 49.8425 27.5054 49.9946 27.5044C50.1466 27.5034 50.2966 27.5399 50.4312 27.6106C53.2819 29.1202 56.2875 30.3172 59.3956 31.1806C62.5352 32.0478 65.7567 32.5854 69.0078 32.7847C69.1297 32.784 69.2506 32.8076 69.3634 32.8539C69.4762 32.9002 69.5788 32.9683 69.6651 33.0544C69.7515 33.1405 69.82 33.2428 69.8666 33.3555C69.9132 33.4682 69.9371 33.589 69.9369 33.7109V45.1962V45.2028C69.8684 52.2584 68.2147 57.9687 64.9437 62.4762C61.6728 66.9837 56.7997 70.264 50.2972 72.4494C50.1068 72.5136 49.9006 72.5136 49.7103 72.4494C43.2078 70.264 38.3375 66.9865 35.0637 62.4762C31.8022 57.9875 30.1494 52.3053 30.0678 45.2909C30.0659 45.2597 30.0659 45.2284 30.0678 45.1972V33.7109C30.0679 33.4751 30.1579 33.2482 30.3196 33.0766C30.4813 32.905 30.7024 32.8016 30.9378 32.7875C34.2073 32.5904 37.4472 32.0512 40.6044 31.1787ZM50 29.4687C55.6578 32.3872 61.7487 34.069 68.0834 34.5706V45.1962C68.0169 51.845 66.4784 57.1962 63.4372 61.3897C60.4447 65.5147 55.9747 68.539 49.9962 70.5969C44.0178 68.539 39.5478 65.5128 36.5553 61.3897C33.5281 57.2131 31.9906 51.8825 31.9137 45.2656C31.9137 45.2431 31.9137 45.2197 31.9137 45.1962V34.5725C38.2512 34.0709 44.3422 32.389 50 29.4687ZM53.3234 46.4375C53.4905 46.258 53.7221 46.1522 53.9671 46.1434C54.2122 46.1346 54.4508 46.2235 54.6303 46.3906C54.8098 46.5577 54.9156 46.7892 54.9244 47.0343C54.9332 47.2794 54.8443 47.518 54.6772 47.6975L49.2144 53.5728C49.1236 53.6712 49.0125 53.7487 48.8888 53.7999C48.7651 53.8512 48.6318 53.8749 48.498 53.8694C48.3642 53.864 48.2332 53.8295 48.1141 53.7684C47.995 53.7073 47.8906 53.6211 47.8081 53.5156L45.3125 50.75C45.2312 50.6601 45.1683 50.5551 45.1276 50.4409C45.0869 50.3268 45.069 50.2057 45.0751 50.0847C45.0811 49.9636 45.111 49.845 45.1629 49.7354C45.2148 49.6259 45.2878 49.5277 45.3776 49.4464C45.5591 49.2822 45.7985 49.1968 46.0429 49.209C46.164 49.215 46.2827 49.2449 46.3922 49.2968C46.5017 49.3487 46.5999 49.4217 46.6812 49.5115L48.5422 51.5675L53.3234 46.4375Z" fill="white"/>
</svg>
