<svg width="100" height="100" viewBox="0 0 100 100" fill="none" xmlns="http://www.w3.org/2000/svg">
<rect width="100" height="100" rx="50" fill="#A4EEF1"/>
<g clip-path="url(#clip0_659_4599)">
<path fill-rule="evenodd" clip-rule="evenodd" d="M46.9431 64.959H29.2366C27.8672 64.959 26.752 63.8477 26.752 62.4784V44.0553C26.752 42.6917 27.8672 41.5746 29.2366 41.5746H30.6042V36.88C30.6042 31.2588 35.2041 26.6589 40.8252 26.6589C46.4464 26.6589 51.0423 31.2587 51.0423 36.88C51.0423 37.2958 50.7052 37.633 50.2894 37.633H45.9561C45.5403 37.633 45.2032 37.2958 45.2032 36.88C45.2032 34.4754 43.2264 32.498 40.8252 32.498C38.424 32.498 36.4473 34.4754 36.4473 36.88V41.5746H52.4139C53.7837 41.5746 54.8944 42.6912 54.8944 44.0553V46.7863C56.3514 46.2571 57.9234 45.9684 59.5622 45.9684C67.116 45.9684 73.2487 52.1011 73.2487 59.6548C73.2487 67.2086 67.116 73.3413 59.5622 73.3413C53.8888 73.3413 49.0171 69.8818 46.9431 64.959ZM32.1101 41.5746H34.9414V36.88C34.9414 33.6487 37.5984 30.9921 40.8252 30.9921C43.7974 30.9921 46.2864 33.246 46.6605 36.1271H49.504C49.1194 31.683 45.3646 28.1648 40.8252 28.1648C36.0322 28.1648 32.1101 32.087 32.1101 36.88V41.5746ZM53.3886 47.4386V44.0553C53.3886 43.5193 52.9521 43.0805 52.4139 43.0805H29.2366C28.6978 43.0805 28.2578 43.5188 28.2578 44.0553V62.4784C28.2578 63.0171 28.6978 63.4531 29.2366 63.4531H46.4106C46.0624 62.247 45.8758 60.9725 45.8758 59.6548C45.8758 54.3216 48.9328 49.6969 53.3886 47.4386ZM59.5622 47.4743C52.8396 47.4743 47.3817 52.9322 47.3817 59.6548C47.3817 66.3774 52.8396 71.8354 59.5622 71.8354C66.2848 71.8354 71.7428 66.3774 71.7428 59.6548C71.7428 52.9322 66.2848 47.4743 59.5622 47.4743ZM62.4539 59.4046C65.4643 60.4896 67.6877 63.2207 68.0393 66.5113C68.062 66.7237 67.9934 66.9357 67.8506 67.0946C67.7078 67.2535 67.5042 67.3442 67.2906 67.3442H51.8338C51.6202 67.3442 51.4165 67.2535 51.2737 67.0945C51.131 66.9355 51.0624 66.7234 51.0852 66.5109C51.4386 63.2203 53.6625 60.4893 56.6721 59.4044C55.5824 58.5455 54.8808 57.2141 54.8808 55.7243C54.8808 53.1453 56.9833 51.0409 59.5622 51.0409C62.1436 51.0409 64.2457 53.1454 64.2457 55.7243C64.2457 57.2141 63.5441 58.5457 62.4539 59.4046ZM59.5622 60.4077C56.2326 60.4077 53.4442 62.7269 52.7232 65.8383H66.4017C65.6824 62.7268 62.8936 60.4077 59.5622 60.4077ZM59.5622 58.9019C61.3136 58.9019 62.7398 57.474 62.7398 55.7243C62.7398 53.9746 61.3136 52.5467 59.5622 52.5467C57.8127 52.5467 56.3867 53.9747 56.3867 55.7243C56.3867 57.4739 57.8127 58.9019 59.5622 58.9019ZM40.8252 45.9399C43.1008 45.9399 44.9454 47.7883 44.9454 50.064C44.9454 51.3936 44.3206 52.5739 43.3459 53.3275V58.0731C43.3459 59.462 42.2084 60.5937 40.8252 60.5937C39.4363 60.5937 38.3045 59.462 38.3045 58.0731V53.3275C37.3292 52.5739 36.7011 51.3935 36.7011 50.064C36.7011 47.7886 38.5499 45.9399 40.8252 45.9399ZM40.8252 47.4458C39.3807 47.4458 38.207 48.6195 38.207 50.064C38.207 51.0075 38.7054 51.8324 39.4527 52.2932C39.6751 52.4303 39.8104 52.6729 39.8104 52.9341V58.0731C39.8104 58.6322 40.266 59.0878 40.8252 59.0878C41.3821 59.0878 41.84 58.6322 41.84 58.0731V52.9341C41.84 52.6729 41.9754 52.4303 42.1978 52.2932C42.9449 51.8325 43.4395 51.0073 43.4395 50.064C43.4395 48.6197 42.2695 47.4458 40.8252 47.4458Z" fill="white"/>
</g>
<defs>
<clipPath id="clip0_659_4599">
<rect width="48" height="48" fill="white" transform="translate(26 26)"/>
</clipPath>
</defs>
</svg>
