<svg width="100" height="100" viewBox="0 0 100 100" fill="none" xmlns="http://www.w3.org/2000/svg">
<rect width="100" height="100" rx="50" fill="#F1A4EB"/>
<path d="M37.2505 27.499C35.2609 27.499 33.3191 28.108 31.6855 29.2436C30.835 29.8085 31.7144 31.0752 32.541 30.4755C33.9234 29.5145 35.5669 28.999 37.2505 28.999C41.8157 28.999 45.5005 32.6838 45.5005 37.249C45.5005 41.8142 41.8157 45.499 37.2505 45.499C32.6852 45.499 29.0005 41.8142 29.0005 37.249C29.0005 35.5649 29.5155 33.9207 30.477 32.538C31.0765 31.7116 29.81 30.8322 29.2451 31.6826C28.1089 33.3165 27.5005 35.2589 27.5005 37.249C27.5005 42.6249 31.8746 46.999 37.2505 46.999C42.6264 46.999 47.0005 42.6249 47.0005 37.249C47.0005 31.8731 42.6264 27.499 37.2505 27.499ZM37.2505 30.4902C36.8754 30.4902 36.5005 30.7399 36.5005 31.2402V32.103C35.2133 32.4396 34.2534 33.6088 34.2534 34.9975C34.2534 36.6455 35.5996 37.9975 37.2475 37.9975C38.0849 37.9975 38.7475 38.6602 38.7475 39.4975C38.7475 40.3348 38.0849 40.999 37.2475 40.999C36.4102 40.999 35.7534 40.3348 35.7534 39.4975C35.7761 38.4748 34.2305 38.4748 34.2534 39.4975C34.2534 40.8862 35.2133 42.0555 36.5005 42.3921V43.2461C36.5005 44.2463 38.0005 44.2463 38.0005 43.2461V42.3906C39.2861 42.0521 40.249 40.8842 40.249 39.4975C40.249 37.8495 38.8955 36.4975 37.2475 36.4975C36.4102 36.4975 35.7534 35.8348 35.7534 34.9975C35.7534 34.1602 36.4102 33.496 37.2475 33.496C38.0849 33.496 38.7475 34.1602 38.7475 34.9975C38.7475 35.9985 40.249 35.9985 40.249 34.9975C40.249 33.6108 39.2861 32.443 38.0005 32.1045V31.2402C38.0005 30.7401 37.6256 30.4902 37.2505 30.4902ZM62.749 31.9961H67.0395C65.2294 34.2881 50.4251 52.249 30.499 52.249C29.4766 52.2263 29.4766 53.7717 30.499 53.749C50.4415 53.749 65.1613 36.7351 68.0034 33.2046V37.2505C68.0261 38.2283 69.4814 38.2283 69.5034 37.2505V31.249C69.5019 30.8348 69.1646 30.5004 68.7505 30.5019H62.7131C61.7572 30.6164 61.8221 31.9704 62.749 31.9961ZM28.2505 72.5004H71.7505C72.7728 72.5231 72.7728 70.9778 71.7505 71.0005H69.5034V52.249C69.5091 51.8259 69.1618 51.4823 68.7387 51.4901C68.3266 51.4986 67.9987 51.8367 68.0034 52.249V71.0005H63.5019V47.0004H68.0034V49.2475C68.0034 50.2478 69.5034 50.2478 69.5034 49.2475V46.2475C69.5019 45.8332 69.1648 45.4988 68.7505 45.5004H62.749C62.3368 45.5019 62.0019 45.8353 62.0005 46.2475V71.0005H59.0005V52.249C58.999 51.837 58.6653 51.5035 58.2534 51.5019H52.2131C51.7907 51.5405 51.4986 51.8634 51.499 52.249V71.0005H48.4975V58.2504C48.499 57.8362 48.1647 57.4992 47.7505 57.4975H41.749C41.3348 57.499 41.0004 57.8362 41.0019 58.2504V71.0005H38.0005V64.2519C38.002 63.8354 37.664 63.4974 37.2475 63.499H31.2519C30.8355 63.4975 30.4974 63.8354 30.499 64.2519V71.0005H28.2124C27.1993 71.0736 27.2732 72.5265 28.2505 72.5004ZM52.999 53.0019H57.5005V71.0005H52.999V53.0019ZM42.5019 58.9975H47.0034V71.0005H42.5019V58.9975ZM31.999 64.999H36.5005V71.0005H31.999V64.999Z" fill="white"/>
</svg>
