<svg width="20" height="20" viewBox="0 0 20 20" fill="none" xmlns="http://www.w3.org/2000/svg">
<path fill-rule="evenodd" clip-rule="evenodd" d="M14.5203 4.6314C11.7896 1.90065 7.36217 1.90065 4.6314 4.6314C1.90065 7.36217 1.90065 11.7896 4.6314 14.5203C7.36217 17.2511 11.7896 17.2511 14.5203 14.5203C17.2511 11.7896 17.2511 7.36217 14.5203 4.6314ZM3.51182 3.51182C6.86091 0.162727 12.2908 0.162727 15.6399 3.51182C18.8003 6.67217 18.9784 11.6855 16.1742 15.0546L19.7681 18.6486C20.0773 18.9577 20.0773 19.459 19.7681 19.7681C19.459 20.0773 18.9577 20.0773 18.6486 19.7681L15.0546 16.1742C11.6855 18.9784 6.67217 18.8003 3.51182 15.6399C0.162727 12.2908 0.162727 6.86091 3.51182 3.51182Z" fill="#9AA0A4"/>
</svg>
